<svg width="10692" height="975" viewBox="0 0 10692 975" fill="none" xmlns="http://www.w3.org/2000/svg">
<path d="M849 848.309L660.463 717.546C731.34 704.464 778.255 690.737 778.255 690.737L619.668 558.745C672.774 546.087 707.51 533.356 707.51 533.356L573.968 394.003C612.026 380.921 636.75 368.087 636.75 368.087L424.485 92L212.25 368.087C212.25 368.087 236.973 380.921 275.017 394.003L141.505 533.356C141.505 533.356 176.226 546.087 229.318 558.73L70.7451 690.737C70.7451 690.737 117.66 704.464 188.522 717.546L0 848.309C0 848.309 147.155 884.249 325.445 895.268V970H523.555V895.268C701.83 884.249 849 848.309 849 848.309Z" fill="white" fill-opacity="0.17"/>
<mask id="mask0_315_6" style="mask-type:alpha" maskUnits="userSpaceOnUse" x="2105" y="192" width="251" height="173">
<path d="M2329.03 237.852L2353.22 278.557C2353.22 278.557 2335.83 318.307 2300.63 343.13C2233.04 390.79 2152.8 340.474 2123.03 309.674C2095.16 278.758 2111.75 275.454 2121.66 279.004L2150.5 289.539C2109.67 196.128 2125.88 189.324 2140.45 196.612L2190.34 228.666C2221.75 252.861 2239.54 245.385 2249.84 237.835L2270.44 222.733C2300.89 203.057 2323.97 230.005 2329.03 237.852Z" fill="white" stroke="white" stroke-width="4" stroke-linecap="round" stroke-linejoin="round"/>
<path d="M2291.95 280.873C2285.37 279.86 2280.87 273.711 2281.88 267.138C2282.89 260.565 2289.04 256.058 2295.61 257.071C2302.19 258.083 2306.69 264.233 2305.68 270.806C2304.67 277.378 2298.52 281.886 2291.95 280.873Z" fill="black"/>
</mask>
<g mask="url(#mask0_315_6)">
<path d="M2395.42 162.795L2109.8 118.787L2065.79 404.417L2351.42 448.425L2395.42 162.795Z" fill="white" fill-opacity="0.17"/>
</g>
<path d="M1189.5 1030.83H1071.58V1007.25H1139.39C1135.12 990.959 1126.59 976.1 1114.67 964.203C1102.76 952.306 1087.88 943.801 1071.58 939.566C1079.13 937.679 1087.03 936.5 1095.17 936.5C1147.29 936.5 1189.5 978.714 1189.5 1030.83ZM1307.42 939.566C1299.87 937.679 1291.97 936.5 1283.83 936.5C1249.28 936.5 1219.22 955.131 1202.71 982.841C1209.52 997.922 1213.01 1014.29 1212.97 1030.83H1307.3V1007.25H1239.5C1243.8 990.961 1252.36 976.109 1264.3 964.216C1276.23 952.323 1291.11 943.815 1307.42 939.566ZM1232.42 924.944C1241.56 900.511 1258.51 879.782 1280.65 865.986C1230.06 867.637 1189.5 909.025 1189.5 960.083V960.319C1200.7 945.344 1215.44 933.198 1232.42 924.944ZM1182.66 899.356C1177.78 886.53 1170.32 874.839 1160.75 865.003C1151.18 855.168 1139.69 847.396 1127 842.167C1143.98 864.099 1154.13 891.456 1154.13 921.289C1154.13 923.765 1153.77 926.123 1153.65 928.482C1158.72 931.312 1163.44 934.613 1168.04 938.151C1170.56 924.451 1175.51 911.313 1182.66 899.356Z" fill="white" fill-opacity="0.17"/>
<path d="M1426.5 1063.83H1308.58V1040.25H1376.39C1372.12 1023.96 1363.59 1009.1 1351.67 997.203C1339.76 985.306 1324.88 976.801 1308.58 972.566C1316.13 970.679 1324.03 969.5 1332.17 969.5C1384.29 969.5 1426.5 1011.71 1426.5 1063.83ZM1544.42 972.566C1536.87 970.679 1528.97 969.5 1520.83 969.5C1486.28 969.5 1456.22 988.131 1439.71 1015.84C1446.52 1030.92 1450.01 1047.29 1449.97 1063.83H1544.3V1040.25H1476.5C1480.8 1023.96 1489.36 1009.11 1501.3 997.216C1513.23 985.323 1528.11 976.815 1544.42 972.566ZM1469.42 957.944C1478.56 933.511 1495.51 912.782 1517.65 898.986C1467.06 900.637 1426.5 942.025 1426.5 993.083V993.319C1437.7 978.344 1452.44 966.198 1469.42 957.944ZM1419.66 932.356C1414.78 919.53 1407.32 907.839 1397.75 898.003C1388.18 888.168 1376.69 880.396 1364 875.167C1380.98 897.099 1391.13 924.456 1391.13 954.289C1391.13 956.765 1390.77 959.123 1390.65 961.482C1395.72 964.312 1400.44 967.613 1405.04 971.151C1407.56 957.451 1412.51 944.313 1419.66 932.356Z" fill="white" fill-opacity="0.17"/>
<g clip-path="url(#clip0_315_6)">
<path d="M10623.8 892.454L10308.9 894.25V958.105C10308.9 993.456 10280.5 1022 10245.2 1022C10209.9 1022 10181.1 993.416 10181.1 958.145V894.29L9864.05 894.27C9807.18 894.27 9776.87 825.425 9814.78 781.69L9952.43 622.821H9922.16C9871.46 622.821 9844.04 563.338 9876.92 524.753L9997.47 383.33H9976.02C9933.56 383.33 9910.43 338.418 9937.55 308.856L10206.5 16.4279C10227.3 -6.12796 10262.9 -6.12796 10283.6 16.4219L10552.8 308.85C10580 338.412 10556.8 383.324 10514.3 383.324H10492.8L10613.3 524.767C10646.1 563.372 10618.7 622.815 10568 622.815H10537.7L10675.3 781.684C10713.4 825.784 10682.2 892.454 10623.8 892.454Z" fill="white" fill-opacity="0.17"/>
</g>
<path d="M9198.51 754.07L9167.15 733.256C9161.31 714.8 9149.05 699.044 9132.61 688.836C9116.16 678.628 9096.6 674.641 9077.47 677.596C9058.33 680.551 9040.89 690.252 9028.29 704.947C9015.68 719.642 9008.75 738.36 9008.75 757.719V780.966L8881.43 940.18C8880.16 941.766 8879.37 943.678 8879.13 945.696C8878.9 947.715 8879.24 949.758 8880.11 951.592C8880.99 953.426 8882.36 954.977 8884.08 956.066C8885.79 957.155 8887.78 957.739 8889.81 957.75H9030.37C9067.63 957.679 9103.34 942.847 9129.69 916.501C9156.03 890.156 9170.87 854.445 9170.94 817.188V790.562L9198.51 772.181C9200.02 771.198 9201.25 769.855 9202.11 768.274C9202.96 766.693 9203.41 764.923 9203.41 763.125C9203.41 761.327 9202.96 759.557 9202.11 757.976C9201.25 756.395 9200.02 755.052 9198.51 754.07ZM9027.81 845.706L8973.74 910.581C8971.82 912.421 8969.29 913.488 8966.63 913.578C8963.97 913.668 8961.37 912.774 8959.33 911.067C8957.29 909.36 8955.95 906.961 8955.57 904.327C8955.18 901.694 8955.78 899.012 8957.26 896.795L9011.32 831.92C9012.16 830.653 9013.26 829.577 9014.54 828.763C9015.83 827.949 9017.27 827.416 9018.77 827.197C9020.28 826.978 9021.81 827.079 9023.27 827.494C9024.74 827.908 9026.1 828.626 9027.26 829.602C9028.43 830.577 9029.38 831.788 9030.04 833.154C9030.71 834.521 9031.08 836.012 9031.13 837.532C9031.19 839.052 9030.92 840.565 9030.34 841.974C9029.77 843.382 9028.91 844.654 9027.81 845.706ZM9100.66 763.125C9097.45 763.125 9094.31 762.174 9091.65 760.392C9088.98 758.61 9086.9 756.077 9085.67 753.113C9084.44 750.149 9084.12 746.888 9084.75 743.742C9085.37 740.596 9086.92 737.706 9089.19 735.438C9091.46 733.17 9094.35 731.625 9097.49 730.999C9100.64 730.374 9103.9 730.695 9106.86 731.922C9109.83 733.15 9112.36 735.229 9114.14 737.896C9115.92 740.563 9116.87 743.699 9116.87 746.906C9116.87 751.208 9115.17 755.333 9112.12 758.375C9109.08 761.416 9104.96 763.125 9100.66 763.125Z" fill="white" fill-opacity="0.17"/>
<path d="M7997.5 1037.83H7879.58V1014.25H7947.39C7943.12 997.959 7934.59 983.1 7922.67 971.203C7910.76 959.306 7895.88 950.801 7879.58 946.566C7887.13 944.679 7895.03 943.5 7903.17 943.5C7955.29 943.5 7997.5 985.714 7997.5 1037.83ZM8115.42 946.566C8107.87 944.679 8099.97 943.5 8091.83 943.5C8057.28 943.5 8027.21 962.131 8010.71 989.841C8017.52 1004.92 8021.01 1021.29 8020.97 1037.83H8115.3V1014.25H8047.5C8051.8 997.961 8060.36 983.109 8072.3 971.216C8084.23 959.323 8099.11 950.815 8115.42 946.566ZM8040.42 931.944C8049.56 907.511 8066.51 886.782 8088.65 872.986C8038.06 874.637 7997.5 916.025 7997.5 967.083V967.319C8008.7 952.344 8023.44 940.198 8040.42 931.944ZM7990.66 906.356C7985.78 893.53 7978.32 881.839 7968.75 872.003C7959.18 862.168 7947.69 854.396 7935 849.167C7951.98 871.099 7962.12 898.456 7962.12 928.289C7962.12 930.765 7961.77 933.123 7961.65 935.482C7966.72 938.312 7971.44 941.613 7976.04 945.151C7978.56 931.451 7983.51 918.313 7990.66 906.356Z" fill="white" fill-opacity="0.17"/>
<path d="M8508.5 990.833H8390.58V967.25H8458.39C8454.12 950.959 8445.59 936.1 8433.67 924.203C8421.76 912.306 8406.88 903.801 8390.58 899.566C8398.13 897.679 8406.03 896.5 8414.17 896.5C8466.29 896.5 8508.5 938.714 8508.5 990.833ZM8626.42 899.566C8618.87 897.679 8610.97 896.5 8602.83 896.5C8568.28 896.5 8538.21 915.131 8521.71 942.841C8528.52 957.922 8532.01 974.287 8531.97 990.833H8626.3V967.25H8558.5C8562.8 950.961 8571.36 936.109 8583.3 924.216C8595.23 912.323 8610.11 903.815 8626.42 899.566ZM8551.42 884.944C8560.56 860.511 8577.51 839.782 8599.65 825.986C8549.06 827.637 8508.5 869.025 8508.5 920.083V920.319C8519.7 905.344 8534.44 893.198 8551.42 884.944ZM8501.66 859.356C8496.78 846.53 8489.32 834.839 8479.75 825.003C8470.18 815.168 8458.69 807.396 8446 802.167C8462.98 824.099 8473.12 851.456 8473.12 881.289C8473.12 883.765 8472.77 886.123 8472.65 888.482C8477.72 891.312 8482.44 894.613 8487.04 898.151C8489.56 884.451 8494.51 871.313 8501.66 859.356Z" fill="white" fill-opacity="0.17"/>
<path fill-rule="evenodd" clip-rule="evenodd" d="M3645.75 511.58V374.158C3645.73 372.363 3645.36 370.59 3644.66 368.939C3643.96 367.288 3642.94 365.791 3641.66 364.535C3640.38 363.278 3638.86 362.286 3637.2 361.615C3635.53 360.944 3633.75 360.608 3631.96 360.625H3556.3C3554.49 360.58 3552.68 360.896 3550.99 361.554C3549.3 362.212 3547.76 363.199 3546.45 364.457C3545.14 365.716 3544.1 367.222 3543.38 368.887C3542.66 370.552 3542.27 372.343 3542.25 374.158V597.873L3516.38 619.427V1033.43H4085.62V645.302L3802.81 380.601L3645.75 511.58Z" fill="white" fill-opacity="0.17"/>
<path d="M3798.93 981.703H3596.07C3595.03 981.703 3594 980.668 3594 979.633V707.169C3594 687.763 3609.78 671.979 3629.19 671.979H3766.07C3785.47 671.979 3801.26 687.763 3801.26 707.169V979.633C3801 980.668 3799.96 981.703 3798.93 981.703Z" fill="white" fill-opacity="0.17"/>
<path d="M3762.19 826.427C3765.62 826.427 3768.91 825.064 3771.34 822.637C3773.76 820.211 3775.12 816.92 3775.12 813.489C3775.12 810.058 3773.76 806.767 3771.34 804.341C3768.91 801.915 3765.62 800.552 3762.19 800.552C3758.76 800.552 3755.47 801.915 3753.04 804.341C3750.61 806.767 3749.25 810.058 3749.25 813.489C3749.25 816.92 3750.61 820.211 3753.04 822.637C3755.47 825.064 3758.76 826.427 3762.19 826.427Z" fill="white" fill-opacity="0.17"/>
<path d="M3799.97 1007.55H3594C3579.77 1007.55 3568.12 995.908 3568.12 981.677C3568.12 967.446 3579.77 955.802 3594 955.802H3799.97C3814.2 955.802 3825.84 967.446 3825.84 981.677C3825.84 995.908 3814.2 1007.55 3799.97 1007.55Z" fill="white" fill-opacity="0.17"/>
<path d="M3825.22 320.887L4160.43 629.305C4173.04 640.839 4172.65 659.035 4159.55 669.768C4146.71 680.746 4126.09 680.296 4113.48 668.762L3800.86 381.197L3474.89 655.777C3462.06 666.755 3441.43 666.305 3428.82 654.771C3416.21 643.237 3416.61 625.041 3429.71 614.069L3779.15 319.881C3791.99 308.903 3812.61 309.353 3825.22 320.887V320.887Z" fill="white" fill-opacity="0.22"/>
<path d="M3985.75 826.427H3875C3862.58 826.427 3852.75 816.594 3852.75 804.174V693.429C3852.75 681.268 3862.58 671.177 3875 671.177H3985.75C3997.91 671.177 4008 681.009 4008 693.429V804.174C4008 816.594 3998.17 826.427 3985.75 826.427Z" fill="white" fill-opacity="0.17"/>
<defs>
<clipPath id="clip0_315_6">
<rect width="894" height="1022" fill="white" transform="translate(9798)"/>
</clipPath>
</defs>
</svg>