<svg width="1087" height="941" viewBox="0 0 1087 941" fill="none" xmlns="http://www.w3.org/2000/svg">
<path d="M887.858 304.942C876.394 301.162 864.929 297.591 853.465 294.231C855.376 286.459 857.074 278.688 858.772 270.917C884.886 145.737 867.689 45.1309 809.73 11.9456C753.894 -19.7694 662.815 13.2058 570.675 92.5985C561.546 100.37 552.629 108.561 544.137 116.752C538.405 111.291 532.46 105.831 526.516 100.58C429.917 15.7262 333.106 -19.9794 275.147 13.4159C219.523 45.341 202.963 140.066 226.317 258.525C228.652 270.287 231.2 281.839 234.172 293.6C220.585 297.381 207.209 301.582 194.683 305.992C81.3127 344.849 0 406.178 0 469.608C0 535.139 86.6203 600.879 204.449 640.786C214.003 643.936 223.557 647.087 233.323 649.817C230.138 662.419 227.378 674.811 224.831 687.623C202.539 804.192 219.948 896.606 275.572 928.321C332.894 961.087 429.28 927.481 523.119 846.198C530.549 839.687 537.98 832.966 545.411 825.825C554.752 834.857 564.518 843.468 574.284 851.869C665.151 929.162 754.956 960.457 810.367 928.742C867.689 895.976 886.372 796.63 862.169 675.651C860.259 666.41 858.136 656.958 855.8 647.297C862.594 645.406 869.175 643.306 875.757 641.206C998.257 601.089 1087 536.189 1087 469.608C1087 405.968 1003.35 344.218 887.858 304.942ZM600.61 126.624C679.587 58.5731 753.257 31.8988 786.801 51.0119C822.681 71.3851 836.48 153.718 813.976 261.885C812.49 269.027 811.004 275.958 809.093 282.889C761.962 272.387 714.193 264.826 666.212 260.625C638.612 221.559 608.465 184.173 575.77 149.097C584.05 141.326 592.118 133.975 600.61 126.624ZM354.973 578.616C365.801 596.889 376.841 615.162 388.518 633.014C355.398 629.444 322.491 624.193 290.008 617.262C299.35 587.017 311.026 555.722 324.614 523.797C334.38 542.28 344.358 560.553 354.973 578.616ZM290.645 325.946C321.217 319.225 353.7 313.764 387.456 309.563C376.204 326.996 365.164 344.849 354.761 362.911C344.358 380.764 334.168 399.037 324.614 417.52C311.239 386.225 299.987 355.56 290.645 325.946ZM348.817 470.659C362.829 441.674 378.115 413.319 394.25 385.385C410.385 357.451 427.794 330.356 446.052 303.682C477.898 301.372 510.38 300.111 543.5 300.111C576.62 300.111 609.314 301.372 640.948 303.682C658.994 330.146 676.19 357.241 692.538 384.965C708.885 412.689 724.171 441.044 738.608 469.818C724.384 498.803 709.098 527.368 692.75 555.512C676.615 583.447 659.418 610.541 641.372 637.425C609.739 639.736 576.832 640.786 543.5 640.786C510.168 640.786 477.898 639.736 446.689 637.845C428.219 611.171 410.81 583.867 394.462 555.932C378.115 527.998 363.041 499.643 348.817 470.659ZM732.239 578.196C743.066 559.713 753.257 541.02 763.235 522.117C776.823 552.572 788.712 583.447 799.115 615.162C766.208 622.513 732.876 628.184 699.332 631.964C710.796 614.321 721.624 596.259 732.239 578.196ZM762.811 417.52C752.832 399.037 742.642 380.554 732.027 362.491C721.624 344.639 710.796 326.996 699.544 309.563C733.725 313.764 766.42 319.435 796.992 326.366C787.226 357.451 775.761 387.695 762.811 417.52ZM543.925 181.233C566.217 205.176 587.235 230.38 606.767 256.425C564.73 254.534 522.482 254.534 480.446 256.425C501.251 229.33 522.694 204.126 543.925 181.233ZM297.651 52.4821C333.318 31.8988 412.508 61.3035 495.944 134.395C501.251 139.016 506.559 144.057 512.079 149.097C479.172 184.173 448.812 221.559 421 260.625C373.019 264.826 325.463 272.177 278.331 282.469C275.572 271.757 273.236 260.835 270.901 249.913C250.944 148.257 264.107 71.5951 297.651 52.4821ZM245.637 606.13C236.72 603.61 228.015 600.879 219.311 597.939C174.09 583.867 122.712 561.603 85.5588 532.408C64.116 517.706 49.6793 495.022 45.6455 469.608C45.6455 431.172 112.734 382.025 209.545 348.629C221.646 344.429 233.96 340.648 246.273 337.077C260.71 382.655 278.119 427.392 298.288 470.659C277.907 514.556 260.286 559.923 245.637 606.13ZM493.184 811.963C458.154 843.678 417.603 868.882 373.444 886.105C349.878 897.236 322.703 898.287 298.5 888.835C264.744 869.512 250.732 795.37 269.839 695.604C272.175 683.843 274.722 672.081 277.695 660.529C325.251 670.61 373.232 677.542 421.849 681.112C449.874 720.388 480.658 757.984 513.565 793.27C506.771 799.781 499.978 806.082 493.184 811.963ZM545.198 760.925C523.543 737.821 501.888 712.197 480.87 684.683C501.251 685.523 522.27 685.943 543.5 685.943C565.367 685.943 586.81 685.523 608.041 684.473C588.509 711.147 567.49 736.561 545.198 760.925ZM822.681 823.935C820.77 849.559 808.032 873.503 787.65 889.675C753.894 908.998 681.923 883.794 604.219 817.844C595.302 810.283 586.386 802.091 577.256 793.69C609.739 758.194 639.674 720.598 666.849 681.112C715.467 677.121 763.872 669.77 811.641 659.059C813.764 667.67 815.675 676.281 817.373 684.683C827.776 730.05 829.474 777.307 822.681 823.935ZM861.32 598.149C855.376 600.039 849.431 601.93 843.274 603.61C828.413 557.822 810.155 513.085 789.137 469.608C809.518 426.762 826.714 382.655 841.151 337.497C852.191 340.648 862.806 344.008 872.997 347.369C971.931 380.974 1041.35 430.962 1041.35 469.188C1041.35 510.355 967.26 563.493 861.32 598.149ZM543.5 566.644C597.213 566.644 640.736 523.587 640.736 470.449C640.736 417.31 597.213 374.253 543.5 374.253C489.787 374.253 446.264 417.31 446.264 470.449C446.264 523.587 489.787 566.644 543.5 566.644Z" fill="#00875F" fill-opacity="0.05"/>
</svg>
