<?xml version="1.0" encoding="UTF-8"?>
<svg version="1.1" xmlns="http://www.w3.org/2000/svg" width="3840" height="2160">
<path d="M0 0 C0.86584717 -0.00683304 1.73169434 -0.01366608 2.6237793 -0.02070618 C5.57214042 -0.03825978 8.52033898 -0.04409822 11.46875 -0.046875 C12.4904126 -0.04887909 13.5120752 -0.05088318 14.56469727 -0.052948 C35.88809528 -0.06295227 57.16842031 0.73720026 78.46875 1.640625 C79.26809967 1.67439743 80.06744934 1.70816986 80.89102173 1.7429657 C86.30262225 1.97229875 91.71390839 2.20818754 97.125 2.44921875 C97.81619934 2.47979559 98.50739868 2.51037243 99.21954346 2.54187584 C106.67709863 2.87429563 114.1319801 3.24839378 121.58398438 3.68774414 C123.49262268 3.79935631 123.49262268 3.79935631 125.43981934 3.91322327 C128.66923058 4.17851947 131.78300083 4.62339027 134.96875 5.203125 C142.6184665 6.37577615 150.23557944 7.40469382 157.95703125 7.95703125 C159.96875 8.203125 159.96875 8.203125 160.96875 9.203125 C162.95914605 9.5480015 164.95988229 9.83334878 166.96289062 10.09521484 C168.24933472 10.26564301 169.53577881 10.43607117 170.86120605 10.61166382 C171.55479721 10.70150921 172.24838837 10.7913546 172.96299744 10.88392258 C175.14420057 11.1665504 177.32466168 11.45437858 179.50500488 11.74356079 C184.15896872 12.35982186 188.81381021 12.96928652 193.46875 13.578125 C198.81254411 14.27747638 204.15593208 14.97974292 209.49858093 15.68779373 C211.61638015 15.96718016 213.73472659 16.24208202 215.85314941 16.51669312 C227.29445961 18.01875194 238.65764448 19.91161616 249.96875 22.203125 C252.32255994 22.64254017 254.67677427 23.07979133 257.03125 23.515625 C261.45101237 24.33678581 265.86590852 25.17399714 270.26953125 26.078125 C278.27808825 27.72135321 286.29452398 29.27833474 294.34765625 30.6875 C295.08971313 30.81738815 295.83177002 30.94727631 296.59631348 31.08110046 C300.31363468 31.73007204 304.0319084 32.37300287 307.75146484 33.0090332 C322.83493942 35.6055844 337.48437717 39.36301427 352.21875 43.453125 C354.01630185 43.94990817 355.81390985 44.44648818 357.61157227 44.94287109 C368.02499137 47.82083725 378.43570856 50.70937114 388.82958984 53.65722656 C394.30702634 55.20462726 399.79607619 56.68379389 405.30859375 58.1015625 C426.21061794 63.51968297 446.46978151 70.37710673 466.79244995 77.65808105 C473.11405101 79.91759754 479.46951214 82.05467088 485.8449707 84.15649414 C489.59385465 85.41256804 493.27695161 86.78881365 496.96875 88.203125 C499.60900367 89.15656857 502.25747525 90.08615847 504.90625 91.015625 C505.62844727 91.27061768 506.35064453 91.52561035 507.09472656 91.78833008 C510.94969569 93.14839316 514.80901368 94.49415027 518.67578125 95.8203125 C519.81768921 96.21512817 519.81768921 96.21512817 520.98266602 96.61791992 C522.43598219 97.12013039 523.89082917 97.61794023 525.34741211 98.1105957 C529.20035276 99.44727297 532.51956049 101.04440812 535.96875 103.203125 C537.28672944 103.74229841 538.62001553 104.24629558 539.96875 104.703125 C543.24780564 105.8777121 545.97861209 107.40904226 548.96875 109.203125 C550.79831742 109.88074256 552.62874969 110.5561227 554.46362305 111.21923828 C557.51716631 112.41851509 560.45808506 113.7964673 563.42578125 115.1953125 C564.76807519 115.82584872 566.1105328 116.45603661 567.453125 117.0859375 C568.17749756 117.42608887 568.90187012 117.76624023 569.64819336 118.11669922 C573.87014831 120.09331148 578.10150787 122.04962422 582.33203125 124.0078125 C584.14257817 124.84635407 585.95312504 125.68489574 587.76367188 126.5234375 C590.55065625 127.81389632 593.33768787 129.10425302 596.12475586 130.39453125 C598.8606313 131.6612059 601.59633958 132.928241 604.33203125 134.1953125 C605.5912011 134.77803421 605.5912011 134.77803421 606.87580872 135.37252808 C607.64809311 135.73025299 608.4203775 136.08797791 609.21606445 136.45654297 C609.89474075 136.77074188 610.57341705 137.0849408 611.2726593 137.40866089 C612.51289981 137.98960068 613.7437806 138.5906403 614.96875 139.203125 C614.30181077 142.53015519 613.05553569 145.12109507 611.40625 148.078125 C610.86484375 149.05007813 610.3234375 150.02203125 609.765625 151.0234375 C609.17265625 152.07273437 608.5796875 153.12203125 607.96875 154.203125 C607.35515625 155.29367187 606.7415625 156.38421875 606.109375 157.5078125 C602.27348085 164.27432978 598.34759867 170.97814605 594.28979492 177.61425781 C591.59633775 182.0508356 589.11435834 186.58621371 586.64208984 191.14916992 C583.53742342 196.81538999 580.30792783 202.41108408 577.09375 208.015625 C576.41786504 209.19590416 575.74208351 210.37624255 575.06640625 211.55664062 C574.05480885 213.32386891 573.04292157 215.09092684 572.02993774 216.85736084 C570.28245082 219.90498816 568.5401046 222.955391 566.80615234 226.01074219 C566.27367386 226.94740974 566.27367386 226.94740974 565.73043823 227.90299988 C564.74823342 229.63140731 563.76761882 231.36071813 562.78710938 233.09008789 C561.05152611 236.06141204 559.2299765 238.95064078 557.34375 241.828125 C554.97613935 245.48375859 552.93369163 249.16042849 551.03125 253.078125 C549.0193727 257.21248019 546.85178192 261.12221539 544.40625 265.015625 C540.70291955 270.9184667 537.25361439 276.93894129 533.84375 283.015625 C528.60884752 292.33885414 523.26920735 301.5950093 517.86669922 310.82202148 C514.7043517 316.22425359 511.56036991 321.63509988 508.46875 327.078125 C506.30798523 330.88015152 504.11162037 334.65154642 501.84375 338.390625 C499.87775202 341.63925268 498.01657483 344.9210682 496.21875 348.265625 C493.72010376 352.89489982 491.0893163 357.4296214 488.40625 361.953125 C484.28655522 368.89886378 480.29741825 375.91168868 476.34375 382.953125 C472.25907415 390.22372944 468.07477984 397.38665006 463.65234375 404.45703125 C461.52563563 407.92588463 459.58565166 411.47517859 457.66015625 415.05859375 C446.76701618 435.31027448 446.76701618 435.31027448 440.5390625 444.74609375 C438.56365084 447.83697419 436.77100772 451.00821359 434.96875 454.203125 C422.9404379 449.24110167 410.93971236 444.24629722 399.07788086 438.89697266 C393.80297988 436.53338222 388.45770471 434.43864383 383.04296875 432.4140625 C379.78531843 431.13087114 376.63633141 429.69419677 373.46875 428.203125 C368.23500015 425.74055437 362.95035529 423.58301407 357.52734375 421.57421875 C350.48464034 418.86072929 343.54856926 415.88406066 336.61146545 412.91267395 C322.61572733 406.91909915 308.70545272 401.11646001 294.15625 396.5703125 C290.30736413 395.35718428 286.67528482 393.80358365 282.96875 392.203125 C279.25882926 390.81416422 275.52292104 389.50379533 271.78125 388.203125 C270.75692871 387.84645752 269.73260742 387.48979004 268.67724609 387.12231445 C262.71845092 385.07400821 256.82990548 383.18951355 250.6640625 381.87109375 C248.35242658 381.29821007 246.17899078 380.61231121 243.9296875 379.83984375 C238.18140203 377.89307366 232.34136622 376.35136269 226.46875 374.828125 C225.29691162 374.52358398 224.12507324 374.21904297 222.91772461 373.90527344 C213.848158 371.59150297 204.73979727 369.62483613 195.54296875 367.88916016 C190.86936633 367.00494371 186.29220213 366.03052119 181.70825195 364.75732422 C173.71533746 362.74681515 165.6243117 362.00433207 157.4453125 361.1953125 C155.76957123 361.02333323 154.09390304 360.85064044 152.41830444 360.67727661 C148.92423848 360.31751185 145.42967268 359.96332019 141.93457031 359.61376953 C137.49409848 359.16965124 133.05465154 358.71617241 128.61550331 358.2590313 C124.32992079 357.81803355 120.04389909 357.38137992 115.7578125 356.9453125 C114.5621208 356.82325251 114.5621208 356.82325251 113.34227371 356.69872665 C104.66260972 355.81602633 95.99334399 355.00962183 87.28475952 354.45828247 C84.72626941 354.26141396 82.21154108 353.99469938 79.66676331 353.68286133 C74.88352528 353.13952103 70.15993162 353.06218683 65.34985352 353.07373047 C64.43491623 353.07197815 63.51997894 353.07022583 62.57731628 353.06842041 C59.58407641 353.06405521 56.59089662 353.06691924 53.59765625 353.0703125 C51.5078073 353.06963834 49.41795842 353.06866737 47.32810974 353.06741333 C42.9649073 353.06594394 38.60172543 353.06806799 34.23852539 353.07275391 C28.63731296 353.07847558 23.03614819 353.07515205 17.43493748 353.06918144 C13.12767677 353.06557643 8.82042747 353.06671371 4.51316643 353.06930923 C2.44662406 353.06997739 0.38008067 353.06915396 -1.68646049 353.06682968 C-4.56370692 353.06430149 -7.4408747 353.068145 -10.31811523 353.07373047 C-11.1757547 353.07170624 -12.03339417 353.06968201 -12.91702271 353.06759644 C-17.10771712 352.96819258 -17.10771712 352.96819258 -21.03125 354.203125 C-23.86333375 354.56952853 -26.68754725 354.89035718 -29.52734375 355.18359375 C-31.30283783 355.37992606 -33.07822505 355.57722659 -34.85351562 355.77539062 C-37.6317544 356.08257761 -40.41002265 356.38461478 -43.19067383 356.66918945 C-55.75126493 357.96565645 -67.132291 360.415428 -79.06277466 364.54360962 C-81.61810721 365.39974487 -84.19925186 366.09408513 -86.8125 366.75 C-98.47020318 369.70104592 -108.3507097 374.07198033 -118.79541016 379.98339844 C-121.6369187 381.53353784 -124.55063544 382.88601983 -127.48632812 384.24633789 C-134.4846443 387.52074108 -139.86146691 391.21240142 -145.4296875 396.6796875 C-148.94933541 400.09364028 -152.76722479 403.07245425 -156.62109375 406.09765625 C-168.89144763 416.81681466 -176.58706484 436.35925805 -179.03125 452.203125 C-179.15250244 452.86699219 -179.27375488 453.53085937 -179.39868164 454.21484375 C-181.40112922 467.14701429 -177.47198124 482.55607414 -170.27734375 493.32421875 C-166.45890224 498.51847124 -162.31467012 503.39039972 -158.03125 508.203125 C-156.96698028 509.47508383 -155.90433074 510.7484011 -154.84375 512.0234375 C-152.4559585 514.80664663 -149.92645645 517.1242212 -147.03125 519.390625 C-143.90160019 521.87916056 -140.8020974 524.37760889 -137.8046875 527.0234375 C-127.12966485 536.44129697 -115.80263267 544.92484008 -103.49560547 552.10961914 C-103.01236816 552.47047607 -102.52913086 552.83133301 -102.03125 553.203125 C-102.03125 553.863125 -102.03125 554.523125 -102.03125 555.203125 C-100.92112549 555.61244263 -100.92112549 555.61244263 -99.78857422 556.0300293 C-97.19950611 557.13154092 -95.19609343 558.34655304 -92.9140625 559.97265625 C-87.80768745 563.45101862 -82.44946173 566.17966796 -76.90625 568.890625 C-75.87016602 569.40246338 -74.83408203 569.91430176 -73.76660156 570.44165039 C-70.5257906 572.03778656 -67.27961192 573.62241836 -64.03125 575.203125 C-62.98807617 575.71166016 -61.94490234 576.22019531 -60.87011719 576.74414062 C-46.28305982 583.87694202 -46.28305982 583.87694202 -31.3359375 590.203125 C-28.74913293 591.32553512 -26.44396945 592.7484546 -24.03125 594.203125 C-22.18912925 594.87298709 -20.3464072 595.54126394 -18.5 596.19921875 C-15.42284473 597.45053031 -12.53872706 598.97896839 -9.59375 600.515625 C-4.00273763 603.38357684 1.67162023 605.64735045 7.62182617 607.66040039 C14.72635162 610.07397352 21.71564007 612.76122775 28.71875 615.453125 C48.06510419 622.86176076 67.66317132 629.55360736 87.36328125 635.95996094 C92.01626918 637.48708551 96.47178691 639.25269799 100.96875 641.203125 C109.93907947 644.42911356 119.05543181 647.16647978 128.21484375 649.796875 C141.04046284 653.54332501 153.73319047 657.72468654 166.40625 661.953125 C167.1833432 662.21191437 167.9604364 662.47070374 168.76107788 662.73733521 C180.82687226 666.75967784 192.81189118 670.96444961 204.76171875 675.3203125 C210.16500803 677.28637761 215.60359564 679.111941 221.06640625 680.90625 C237.48485952 686.3253415 253.7455242 692.22946319 269.96875 698.203125 C270.68409912 698.46254883 271.39944824 698.72197266 272.13647461 698.98925781 C276.4249785 700.5613847 280.53543314 702.34668693 284.65625 704.328125 C290.63681832 707.16887593 296.68366632 709.81176188 302.78125 712.390625 C322.73590438 720.89874361 342.23357408 730.23483936 361.65145874 739.89620972 C363.80310928 740.96675941 365.95562266 742.03557686 368.10903931 743.10256958 C389.0193445 753.47603099 389.0193445 753.47603099 396.87890625 758.80810547 C400.04610133 760.92228218 403.39341053 762.67330252 406.74609375 764.47265625 C410.87632926 766.69046756 414.98777758 768.94077088 419.09375 771.203125 C420.20375366 771.80797729 420.20375366 771.80797729 421.33618164 772.42504883 C430.12516056 777.27491318 438.26417521 783.06285815 446.46875 788.828125 C447.33024658 789.43277588 448.19174316 790.03742676 449.0793457 790.66040039 C450.84834179 791.90248221 452.61697948 793.14507461 454.38525391 794.38818359 C456.83161265 796.10678413 459.28071204 797.82140439 461.73046875 799.53515625 C473.22216783 807.58633144 483.94762927 815.91453394 494.18457031 825.52783203 C496.64085853 827.83421541 499.10508254 830.13204698 501.5690918 832.43017578 C502.83717799 833.61367944 504.10426614 834.79825335 505.37036133 835.98388672 C508.38050258 838.80091577 511.40053193 841.60436757 514.45703125 844.37109375 C521.39113586 850.65871344 527.80253121 857.14500671 533.96875 864.203125 C534.54625 864.85410156 535.12375 865.50507812 535.71875 866.17578125 C537.48282987 868.17309284 539.22795878 870.18546838 540.96875 872.203125 C541.39913574 872.70183105 541.82952148 873.20053711 542.27294922 873.71435547 C545.33658321 877.26767291 548.38753013 880.83153029 551.43017578 884.40283203 C552.93507767 886.16372484 554.44944074 887.91611278 555.96484375 889.66796875 C556.88322882 890.74183159 557.80121712 891.81603394 558.71875 892.890625 C559.53859375 893.84324219 560.3584375 894.79585937 561.203125 895.77734375 C562.96875 898.203125 562.96875 898.203125 562.96875 901.203125 C563.62875 901.203125 564.28875 901.203125 564.96875 901.203125 C566.45647861 903.50832134 567.81720024 905.81227152 569.15625 908.203125 C574.0809363 916.80364481 579.30131372 925.19686246 584.61401367 933.5625 C595.05053477 950.09911435 595.05053477 950.09911435 598.19921875 959.1953125 C599.0916986 961.52391476 600.19454993 963.67761434 601.34375 965.890625 C603.80452775 970.70232436 605.71293485 975.62214693 607.5859375 980.6875 C608.78960323 983.74766712 610.13794623 986.68469633 611.55957031 989.64770508 C616.62740888 1000.40801645 618.73469965 1011.58248869 620.96875 1023.203125 C621.65648759 1026.67930798 622.34962526 1030.15437427 623.04443359 1033.62915039 C623.48742224 1035.85387723 623.92540531 1038.07960776 624.35791016 1040.30639648 C624.55433105 1041.31001221 624.75075195 1042.31362793 624.953125 1043.34765625 C625.12553711 1044.23815674 625.29794922 1045.12865723 625.47558594 1046.04614258 C625.88689365 1048.23658704 625.88689365 1048.23658704 626.96875 1050.203125 C627.10290472 1052.8754871 627.01193541 1055.52562988 626.96875 1058.203125 C627.95875 1058.203125 628.94875 1058.203125 629.96875 1058.203125 C630.19175781 1057.00300781 630.41476562 1055.80289062 630.64453125 1054.56640625 C632.12305772 1047.92793901 634.68588831 1041.71113779 637.15625 1035.390625 C638.15636037 1032.80492384 639.15124764 1030.21723671 640.14453125 1027.62890625 C640.38945313 1026.99170654 640.634375 1026.35450684 640.88671875 1025.69799805 C642.99170451 1020.19739385 644.94316966 1014.65196841 646.84375 1009.078125 C648.82923359 1003.27586421 651.0163477 997.74082915 653.6640625 992.203125 C656.17407108 986.43160825 658.09344107 980.43216953 660.140625 974.484375 C664.00519694 963.26304834 668.07838195 952.12873653 672.7265625 941.20703125 C675.03713291 935.61951978 677.10268216 929.93678877 679.20263672 924.26757812 C680.18829615 921.61151179 681.18298195 918.95888424 682.17895508 916.30667114 C682.91520257 914.34574366 683.65085779 912.38459553 684.38623047 910.42333984 C685.37910348 907.7754746 686.37219598 905.12769217 687.36547852 902.47998047 C689.64649096 896.39937426 691.92649849 890.31840223 694.20033264 884.23510742 C695.43483619 880.93247967 696.67037515 877.63023981 697.90625 874.328125 C698.16642914 873.63279663 698.42660828 872.93746826 698.69467163 872.22106934 C701.66889594 864.27661455 704.6672142 856.3440844 707.78125 848.453125 C710.54051409 841.45844046 713.05577804 834.3900532 715.4855957 827.27441406 C717.16956845 822.367622 719.00056518 817.54655731 720.94897461 812.73876953 C722.662044 808.47926781 724.27955291 804.1836856 725.90625 799.890625 C726.61183979 798.0338012 727.31756846 796.17703016 728.0234375 794.3203125 C728.35956055 793.43569336 728.69568359 792.55107422 729.04199219 791.63964844 C731.5352532 785.08465769 734.04795718 778.53732941 736.6171875 772.01171875 C739.79569094 763.92201956 742.84705227 755.81142964 745.69897461 747.60083008 C748.05230733 740.86913155 750.64519856 734.23907277 753.25 727.6015625 C756.53559819 719.22255373 759.65795022 710.78122806 762.7578125 702.33203125 C763.06090332 701.50598389 763.36399414 700.67993652 763.67626953 699.82885742 C764.28430196 698.17157265 764.89205279 696.51418453 765.49951172 694.85668945 C766.96923317 690.86106357 768.47185884 686.89013499 770.09375 682.953125 C771.73398786 678.95373651 773.07636945 674.87593345 774.40625 670.765625 C775.82522885 666.39367988 777.35372265 662.16532137 779.34375 658.015625 C782.18632474 652.04443027 784.24296551 645.84102039 786.38452148 639.59448242 C787.93045782 635.10753736 789.52643951 630.68903217 791.40625 626.328125 C796.02843623 615.57850111 799.81689118 604.44519686 803.640625 593.390625 C807.82047105 581.3140445 807.82047105 581.3140445 810.40625 575.890625 C812.63364379 571.17667525 814.3517401 566.38044524 816.03125 561.453125 C819.13501857 552.36200116 822.54405594 543.40212028 826.03125 534.453125 C826.42834671 533.43327515 826.42834671 533.43327515 826.83346558 532.39282227 C827.8681855 529.73561111 828.90320111 527.07851577 829.93907166 524.42175293 C832.68526195 517.37434881 835.34437484 510.29673311 837.96875 503.203125 C838.74599876 501.10803768 839.52335266 499.01298935 840.30078125 496.91796875 C845.14996505 483.85151289 845.14996505 483.85151289 849.95703125 470.76953125 C852.92844481 462.64046606 855.99250683 454.56920688 859.234375 446.54296875 C864.79845329 432.6900305 870.35717097 418.79428979 874.8359375 404.546875 C876.04700607 400.97213468 877.42842182 397.4978536 878.84472656 394.00048828 C880.92596959 388.82088738 882.90776986 383.60258775 884.90625 378.390625 C885.74869792 376.19661458 886.59114583 374.00260417 887.43359375 371.80859375 C887.85415039 370.71184326 888.27470703 369.61509277 888.70800781 368.48510742 C889.5276349 366.35144224 890.34976403 364.21873592 891.17480469 362.0871582 C894.36004371 353.85006848 897.44037288 345.57659811 900.50189209 337.29299927 C904.46368062 326.57566189 908.43833489 315.86959961 912.64355469 305.24487305 C915.07736701 299.04353758 917.2644613 292.75989785 919.39794922 286.44946289 C920.86562471 282.15653455 922.4656569 277.96427196 924.2421875 273.7890625 C927.79464595 265.37760204 930.84865745 256.78171635 933.96875 248.203125 C937.43853587 238.66306342 940.91107878 229.16250551 944.88720703 219.81884766 C946.57495967 215.73700075 947.99257195 211.57358601 949.40625 207.390625 C951.9137576 200.09879563 954.61212544 192.93947824 957.51953125 185.796875 C960.13332181 179.31523802 962.54139516 172.75621167 964.96875 166.203125 C965.32453125 165.24390137 965.6803125 164.28467773 966.046875 163.29638672 C969.92898304 152.82925292 973.80937842 142.36151946 977.66015625 131.8828125 C978.31902832 130.09387573 978.31902832 130.09387573 978.99121094 128.26879883 C979.82338276 126.0089893 980.65360669 123.74846105 981.48144531 121.48706055 C983.79240535 115.21826613 986.25535435 109.03711363 988.8503418 102.88061523 C990.22203109 99.59676531 991.48418559 96.29102138 992.71875 92.953125 C993.22500677 91.58844754 993.73153566 90.22387102 994.23828125 88.859375 C994.5110791 88.12332031 994.78387695 87.38726562 995.06494141 86.62890625 C996.06990775 83.9316222 997.0868936 81.23904886 998.10546875 78.546875 C1001.75581027 68.88567951 1005.35129641 59.21696364 1008.71875 49.453125 C1015.57354493 29.59833007 1015.57354493 29.59833007 1017.96875 27.203125 C1020.356636 27.10437304 1022.7155899 27.07133512 1025.10399723 27.08007717 C1025.86323086 27.07892333 1026.62246449 27.07776948 1027.4047052 27.07658067 C1029.98141842 27.07390686 1032.55807075 27.0784424 1035.13478088 27.08287048 C1036.98767945 27.08243494 1038.84057796 27.08156034 1040.69347614 27.08028132 C1045.81053122 27.07803309 1050.92756558 27.08206209 1056.04461801 27.08705938 C1061.55317269 27.09135902 1067.0617261 27.0899178 1072.57028198 27.0891571 C1082.12267397 27.08863156 1091.67505915 27.09178154 1101.22744942 27.09739494 C1115.03877516 27.10550583 1128.8500976 27.10812474 1142.66142546 27.10938293 C1165.06684731 27.1115741 1187.47226583 27.11822738 1209.87768555 27.12768555 C1231.64851869 27.13686524 1253.41935086 27.14395117 1275.19018555 27.14819336 C1276.19623491 27.14839065 1276.19623491 27.14839065 1277.22260851 27.14859192 C1283.95785545 27.14991041 1290.6931024 27.15118623 1297.42834935 27.15243078 C1353.94181879 27.16287748 1410.4552842 27.18052889 1466.96875 27.203125 C1467.61742688 28.48642851 1468.26450622 29.77053964 1468.91090393 31.05499268 C1469.27141625 31.76999561 1469.63192858 32.48499855 1470.00336552 33.22166824 C1471.00597869 35.27953708 1471.81370944 37.31526288 1472.49609375 39.5 C1472.728125 40.22453369 1472.96015625 40.94906738 1473.19921875 41.69555664 C1473.43253906 42.4405542 1473.66585937 43.18555176 1473.90625 43.953125 C1475.91047293 50.16254674 1478.13334587 56.16363611 1480.71484375 62.16015625 C1482.11213674 65.55109468 1483.33454654 68.98804333 1484.53125 72.453125 C1488.03403534 82.58833206 1491.85264599 92.60602685 1495.65454102 102.63183594 C1498.27910125 109.57227656 1500.80717854 116.52489562 1503.07446289 123.5925293 C1504.02174248 126.35782023 1505.12151385 129.02065302 1506.28125 131.703125 C1509.62214171 139.54294757 1512.31645796 147.60649329 1515.09130859 155.65917969 C1516.45583121 159.61530813 1517.83411638 163.56649699 1519.21875 167.515625 C1519.56957642 168.52725708 1519.56957642 168.52725708 1519.92749023 169.55932617 C1521.43507507 173.85861484 1523.1604783 178.02296445 1524.96875 182.203125 C1525.92413441 184.63574246 1526.86443716 187.06871956 1527.78125 189.515625 C1528.03769287 190.19786133 1528.29413574 190.88009766 1528.55834961 191.58300781 C1530.50968899 196.83336564 1532.29205992 202.12928029 1534.03125 207.453125 C1535.99503203 213.45909365 1538.17633595 219.27354102 1540.68359375 225.078125 C1543.14024447 231.05174378 1545.18001803 237.18146436 1547.29736328 243.28173828 C1548.16477261 245.76410606 1549.06319117 248.23444386 1549.96875 250.703125 C1551.13035955 253.86983651 1552.26510074 257.04399724 1553.37109375 260.23046875 C1556.66312536 269.70864506 1556.66312536 269.70864506 1560.40625 279.015625 C1562.95955219 284.98417217 1565.05586288 291.08028283 1567.16723633 297.21484375 C1569.66404425 304.4303834 1572.36929042 311.55373944 1575.12158203 318.67504883 C1577.11025045 323.85267869 1578.96000536 329.0478796 1580.65625 334.328125 C1582.37865639 339.64612722 1584.4523295 344.61188587 1586.84765625 349.65625 C1588.27731256 352.90411034 1589.23521956 356.20062394 1590.18408203 359.61425781 C1590.91703851 362.03251247 1591.77747014 364.30846381 1592.74609375 366.640625 C1595.35312973 373.06988622 1597.65459978 379.60139748 1599.96875 386.140625 C1605.6080726 402.24136315 1605.6080726 402.24136315 1611.78125 418.140625 C1614.49212051 424.80752562 1616.87538471 431.56708281 1619.21972656 438.37011719 C1621.37474549 444.59023192 1623.66595987 450.7476206 1626.03125 456.890625 C1629.82583227 466.75726219 1633.38025895 476.69177313 1636.82421875 486.68554688 C1639.90449267 495.62372163 1642.98970785 504.48795544 1646.73046875 513.17578125 C1648.52470197 517.56231357 1650.04899622 522.03416492 1651.60009766 526.51123047 C1653.41907214 531.72854234 1655.37441045 536.87782826 1657.40625 542.015625 C1660.28626445 549.31054532 1662.91909723 556.67257339 1665.48193359 564.08422852 C1667.82755873 570.85187962 1670.36523447 577.53059306 1672.96875 584.203125 C1676.50736253 593.39771656 1679.85368649 602.62229429 1682.87670898 612.00073242 C1684.34733054 616.52069317 1686.07214013 620.83942101 1687.96875 625.203125 C1688.8212872 627.50861432 1689.65475071 629.82124882 1690.46875 632.140625 C1690.90316406 633.3678125 1691.33757813 634.595 1691.78515625 635.859375 C1692.17574219 636.9628125 1692.56632812 638.06625 1692.96875 639.203125 C1694.3250857 642.96542301 1695.75670938 646.6857205 1697.2734375 650.38671875 C1700.44722475 658.15674194 1703.31316931 665.9545132 1705.8762207 673.94873047 C1707.34362574 678.49106507 1709.0813619 682.81362698 1710.96875 687.203125 C1712.14189748 690.39498884 1713.24184222 693.61108206 1714.34375 696.828125 C1717.06399921 704.68519364 1719.94713579 712.45662998 1722.96875 720.203125 C1726.76556565 730.10936219 1730.35793822 740.08044953 1733.90625 750.078125 C1736.69504983 757.93544554 1739.51600871 765.76656834 1742.59375 773.515625 C1745.2175969 780.12209665 1747.59789511 786.79261791 1749.90625 793.515625 C1753.36555269 803.58465189 1757.08951357 813.53003726 1760.91699219 823.46386719 C1765.87964077 836.38887115 1770.71819578 849.35156621 1775.2434082 862.4362793 C1778.0436245 870.49750803 1781.01227844 878.4938682 1783.98925781 886.49121094 C1786.27916261 892.64306519 1788.55802897 898.79850628 1790.80859375 904.96484375 C1791.04433609 905.6105986 1791.28007843 906.25635345 1791.52296448 906.92167664 C1791.99773183 908.22228622 1792.47248873 909.52289961 1792.94723511 910.82351685 C1796.35774446 920.16546168 1799.81859533 929.47808583 1803.48168945 938.72412109 C1806.14316768 945.50989897 1808.4800203 952.4012968 1810.83740234 959.29736328 C1813.63110197 967.39760691 1816.70378505 975.37042185 1819.91162109 983.31518555 C1821.60639179 987.54750066 1823.16953219 991.73452973 1824.41796875 996.12109375 C1825.79638026 1000.89481932 1827.65915816 1005.37077486 1829.60839844 1009.93652344 C1831.86463342 1015.35440286 1833.86938046 1020.86429225 1835.88085938 1026.37646484 C1836.59610108 1028.33456147 1837.31732914 1030.29038189 1838.0390625 1032.24609375 C1840.33527147 1038.50031717 1842.48087117 1044.75542459 1844.33349609 1051.15576172 C1845.15222784 1053.79445675 1846.24683435 1056.22796254 1847.46875 1058.703125 C1849.4731413 1062.95649105 1850.90041778 1067.11494928 1852.16796875 1071.6328125 C1853.04073607 1074.43418272 1854.12417823 1077.06946412 1855.28125 1079.765625 C1859.42735296 1089.46900451 1862.77104216 1099.4852275 1866.03125 1109.515625 C1867.28751669 1113.33076277 1868.69606274 1117.01293259 1870.28125 1120.703125 C1872.81094676 1126.64407951 1874.92348383 1132.68876935 1877.02612305 1138.78955078 C1879.61157519 1146.25832825 1882.33667053 1153.67115244 1885.09375 1161.078125 C1888.12502805 1169.22227943 1891.12637511 1177.37236663 1894.03125 1185.5625 C1895.64872358 1190.11838392 1897.32153921 1194.63674839 1899.16796875 1199.10546875 C1903.01262054 1208.46956586 1906.35709892 1217.96769781 1909.63330078 1227.54492188 C1912.24385924 1235.1622894 1914.97914697 1242.7134327 1917.875 1250.2265625 C1918.96875 1253.203125 1918.96875 1253.203125 1919.5 1255.5546875 C1919.73203125 1256.37066406 1919.73203125 1256.37066406 1919.96875 1257.203125 C1920.62875 1257.533125 1921.28875 1257.863125 1921.96875 1258.203125 C1921.96875 851.973125 1921.96875 445.743125 1921.96875 27.203125 C2527.09375 27.203125 2527.09375 27.203125 2591.21875 33.953125 C2596.02032929 34.38963221 2600.83539953 34.64515002 2605.6484375 34.921875 C2608.26644 35.14363521 2610.45252879 35.55377759 2612.96875 36.203125 C2614.3639306 36.24580739 2615.76100908 36.24378776 2617.15625 36.203125 C2620.99579214 36.15942289 2624.66649096 36.4469289 2628.47265625 36.921875 C2631.3639091 37.24764997 2634.25342517 37.44358477 2637.15625 37.640625 C2648.67971212 38.50376921 2660.04783623 40.49936517 2671.41015625 42.55078125 C2673.22712257 42.87591957 2673.22712257 42.87591957 2675.08079529 43.20762634 C2678.89802779 43.89133898 2682.71463331 44.57848414 2686.53125 45.265625 C2689.12300865 45.73003106 2691.71480523 46.19422553 2694.30664062 46.65820312 C2699.03220045 47.50538046 2703.7577548 48.3525812 2708.48266602 49.20336914 C2709.8949221 49.457463 2709.8949221 49.457463 2711.33570862 49.71669006 C2742.50264199 55.47455067 2773.22849514 63.20196331 2803.80322266 71.49291992 C2811.05682761 73.47215751 2811.05682761 73.47215751 2818.37890625 75.171875 C2831.39505263 77.95607743 2843.44088672 83.57104098 2855.63232422 88.78027344 C2859.89801883 90.59942082 2864.17934979 92.37825855 2868.46875 94.140625 C2869.13455078 94.41567871 2869.80035156 94.69073242 2870.48632812 94.97412109 C2874.43524075 96.59878794 2878.40928172 98.138674 2882.40625 99.640625 C2896.38195554 105.00116959 2909.34341097 111.32067949 2922.12646484 119.09716797 C2927.25652834 122.17683768 2932.57351564 124.93429815 2937.859375 127.734375 C2940.59457852 129.19131758 2943.32175566 130.66154945 2946.04052734 132.14892578 C2947.40615754 132.89554406 2948.77388666 133.63832912 2950.14306641 134.37841797 C2961.44304927 140.52318603 2971.462217 147.32523695 2981.21875 155.70458984 C2983.77045064 157.88962591 2986.36759445 160.01468056 2988.96875 162.140625 C2989.82339844 162.84058594 2990.67804687 163.54054688 2991.55859375 164.26171875 C2997.46230171 169.18277159 2997.46230171 169.18277159 3003.96875 173.203125 C3003.96875 173.863125 3003.96875 174.523125 3003.96875 175.203125 C3005.61875 175.863125 3007.26875 176.523125 3008.96875 177.203125 C3008.96875 177.863125 3008.96875 178.523125 3008.96875 179.203125 C3009.52336914 179.45024231 3010.07798828 179.69735962 3010.64941406 179.95196533 C3019.54875269 184.75269014 3027.03354055 192.89912419 3034.21875 199.90625 C3035.61754646 201.26766617 3035.61754646 201.26766617 3037.04460144 202.65658569 C3040.03291352 205.57509335 3043.00364294 208.51106256 3045.96875 211.453125 C3046.7271134 212.20480579 3046.7271134 212.20480579 3047.50079727 212.97167206 C3062.45260406 227.81534866 3075.57545836 242.44969095 3086.01171875 260.87792969 C3088.13219635 264.48083698 3090.41253668 267.92491939 3092.78125 271.3671875 C3093.18824127 271.95891754 3093.59523254 272.55064758 3094.01455688 273.16030884 C3094.82901911 274.34305175 3095.64376518 275.52559925 3096.45880127 276.70794678 C3103.39024763 286.80993189 3109.2765009 296.88875016 3113.96875 308.203125 C3114.81632602 310.06031363 3115.66988913 311.91478946 3116.53125 313.765625 C3118.25782455 317.58042148 3119.93449118 321.41557369 3121.60327148 325.25585938 C3124.64499041 332.32596531 3124.64499041 332.32596531 3127.96875 339.265625 C3133.27855533 349.70292475 3137.67299381 359.73157028 3140.79296875 371.03125 C3141.85859079 374.88981159 3143.10424693 378.66698273 3144.40625 382.453125 C3146.72927262 389.29839541 3148.73333698 396.21119691 3150.65014648 403.18066406 C3151.70060165 406.9535766 3152.76743189 410.66362779 3154.13769531 414.33569336 C3158.50307495 426.19442143 3160.04187978 438.28465183 3161.71875 450.765625 C3162.02342223 452.95916775 3162.32940333 455.15252912 3162.63671875 457.34570312 C3163.19665238 461.34732272 3163.74799181 465.34994619 3164.29199219 469.35375977 C3164.78998679 472.98203391 3165.33840109 476.59504139 3165.96875 480.203125 C3167.96377289 491.75243719 3167.96377289 491.75243719 3168.53125 497.328125 C3168.71990044 500.99212924 3168.71990044 500.99212924 3169.96875 503.203125 C3170.14004836 504.90779879 3170.25476497 506.61829886 3170.34179688 508.3293457 C3170.39855591 509.40259598 3170.45531494 510.47584625 3170.51379395 511.58161926 C3170.59977844 513.33752632 3170.59977844 513.33752632 3170.6875 515.12890625 C3170.75030151 516.34144577 3170.81310303 517.55398529 3170.87780762 518.80326843 C3171.07895658 522.70718667 3171.273887 526.61138846 3171.46875 530.515625 C3171.59986156 533.07489026 3171.73136755 535.63413534 3171.86328125 538.19335938 C3172.18217594 544.40136575 3172.49142353 550.60981198 3172.79833984 556.81842041 C3172.95371979 559.9045933 3173.11755482 562.99015451 3173.28515625 566.07568359 C3174.24217123 584.03562077 3174.04296541 601.82703499 3173.16918945 619.78833008 C3173.02886208 622.69000205 3172.89785052 625.59200152 3172.76757812 628.49414062 C3172.68023136 630.35419229 3172.59236118 632.21421946 3172.50390625 634.07421875 C3172.46531998 634.93454208 3172.4267337 635.79486542 3172.38697815 636.68125916 C3172.34701218 637.48052322 3172.3070462 638.27978729 3172.26586914 639.10327148 C3172.23255997 639.80097153 3172.19925079 640.49867157 3172.16493225 641.21751404 C3171.96008837 643.29079161 3171.49322004 645.18989608 3170.96875 647.203125 C3170.90209624 648.59752164 3170.88336801 649.99482375 3170.90625 651.390625 C3170.91398437 652.17179688 3170.92171875 652.95296875 3170.9296875 653.7578125 C3170.94257813 654.56476562 3170.95546875 655.37171875 3170.96875 656.203125 C3170.99437456 657.80722229 3171.0153666 659.41140169 3171.03125 661.015625 C3171.04285156 661.72332031 3171.05445312 662.43101562 3171.06640625 663.16015625 C3170.96875 665.203125 3170.96875 665.203125 3170.45703125 667.24609375 C3169.81544823 669.43351205 3169.81544823 669.43351205 3170.09375 672.703125 C3170.15318769 677.32228283 3169.00496199 681.40072625 3167.81640625 685.83984375 C3166.92351885 689.38259052 3166.24174051 692.92020336 3165.59375 696.515625 C3163.54553169 707.86359619 3161.03117597 719.12394495 3158.47705078 730.36767578 C3157.70841834 733.76187416 3156.97876102 737.14871298 3156.34887695 740.57226562 C3154.64512726 749.71752367 3152.16008669 758.34521798 3149.09375 767.140625 C3148.07441443 770.08422988 3147.06042116 773.02961812 3146.05078125 775.9765625 C3145.78990219 776.7362886 3145.52902313 777.49601471 3145.26023865 778.27876282 C3143.4969401 783.47565307 3141.94604815 788.70468641 3140.48046875 793.9921875 C3133.97023299 816.94495767 3124.28747276 837.83308138 3113.59375 859.078125 C3113.23573429 859.79104328 3112.87771858 860.50396156 3112.50885391 861.23848343 C3110.09203487 866.04747782 3107.65104462 870.84358958 3105.1953125 875.6328125 C3104.87979746 876.25259287 3104.56428242 876.87237324 3104.23920631 877.51093483 C3096.36524145 892.93471282 3096.36524145 892.93471282 3090.96875 899.203125 C3090.30875 899.203125 3089.64875 899.203125 3088.96875 899.203125 C3088.72125 899.739375 3088.47375 900.275625 3088.21875 900.828125 C3085.16578132 906.6287655 3081.13539974 911.55700112 3076.96875 916.578125 C3072.39454778 922.13696122 3067.9918881 927.78512741 3063.71875 933.578125 C3055.65709582 944.41948193 3046.49547812 953.781392 3036.88256836 963.25317383 C3033.31982937 966.77661389 3029.82075182 970.29953858 3026.5546875 974.1015625 C3022.46185775 978.86251265 3018.07458795 983.31930725 3013.64550781 987.76660156 C3012.22768515 989.19412869 3010.82094494 990.63201328 3009.4140625 992.0703125 C3003.34224107 998.17596023 2997.05545359 1003.32818666 2989.96875 1008.203125 C2988.47116028 1009.27866671 2986.9761957 1010.35787685 2985.484375 1011.44140625 C2984.06254959 1012.46621464 2982.64067397 1013.49095337 2981.21875 1014.515625 C2976.20568461 1018.13042778 2971.20172006 1021.75615385 2966.22753906 1025.42431641 C2963.77579288 1027.22993216 2961.31507861 1029.02317104 2958.85498047 1030.81738281 C2956.91517217 1032.2424866 2954.9912742 1033.68761345 2953.06640625 1035.1328125 C2942.51243081 1042.94143126 2931.35342632 1048.91182702 2919.65283203 1054.82324219 C2915.82671248 1056.79024489 2912.07986252 1058.88372678 2908.34375 1061.015625 C2907.07035808 1061.73966351 2905.79692211 1062.46362454 2904.5234375 1063.1875 C2903.9262793 1063.52716797 2903.32912109 1063.86683594 2902.71386719 1064.21679688 C2897.84605659 1066.96804965 2892.91695099 1069.60004296 2887.96875 1072.203125 C2886.81890625 1072.81671875 2885.6690625 1073.4303125 2884.484375 1074.0625 C2868.02959889 1082.67473152 2850.46238128 1088.98329526 2833.06933594 1095.41845703 C2827.98307722 1097.31841467 2822.91780476 1099.27502226 2817.85058594 1101.22509766 C2815.22752735 1102.22924533 2812.59826567 1103.21601902 2809.96875 1104.203125 C2808.97004883 1104.58992432 2807.97134766 1104.97672363 2806.94238281 1105.37524414 C2796.49113129 1109.29716185 2785.80384094 1111.89261823 2774.96875 1114.515625 C2771.04197016 1115.47642542 2767.11651301 1116.44254577 2763.19140625 1117.41015625 C2762.22598404 1117.6476358 2761.26056183 1117.88511536 2760.2658844 1118.12979126 C2753.19545917 1119.87729328 2746.16387122 1121.74228124 2739.14233398 1123.67553711 C2719.04538949 1129.2030833 2699.28106771 1131.70988673 2678.59741211 1133.84667969 C2677.80414017 1133.92914948 2677.01086823 1134.01161926 2676.19355774 1134.09658813 C2674.69303382 1134.25201394 2673.19229993 1134.4054306 2671.69132996 1134.55648804 C2668.06525192 1134.93235625 2664.53432302 1135.44984611 2660.96875 1136.203125 C2657.88495247 1136.49148009 2654.80057481 1136.70613973 2651.7109375 1136.921875 C2648.88030658 1137.11161479 2648.88030658 1137.11161479 2645.96875 1138.203125 C2642.54082508 1138.46210779 2639.11880685 1138.64553655 2635.68554688 1138.80859375 C2631.69732028 1138.94343987 2631.69732028 1138.94343987 2627.96875 1140.203125 C2626.04009553 1140.37581024 2624.10606821 1140.48968255 2622.17163086 1140.57617188 C2620.95112534 1140.63293091 2619.73061981 1140.68968994 2618.47312927 1140.74816895 C2617.12662207 1140.80617879 2615.78011009 1140.86407762 2614.43359375 1140.921875 C2613.03900984 1140.98493488 2611.6444432 1141.04837749 2610.24989319 1141.11218262 C2606.55246955 1141.28023191 2602.85482093 1141.44272731 2599.15710449 1141.60418701 C2596.21903602 1141.733332 2593.28114206 1141.86619334 2590.34325314 1141.9993515 C2513.12922308 1145.49820754 2436.80404513 1144.203125 2358.96875 1144.203125 C2358.96875 1309.533125 2358.96875 1474.863125 2358.96875 1645.203125 C2348.84373221 1646.32812698 2348.84373221 1646.32812698 2343.98242396 1646.32962483 C2342.87382615 1646.33238458 2341.76522834 1646.33514432 2340.62303665 1646.33798769 C2339.42852063 1646.33593237 2338.23400461 1646.33387705 2337.00329113 1646.33175945 C2335.06476581 1646.33438901 2335.06476581 1646.33438901 2333.08707836 1646.33707169 C2329.50449824 1646.34178623 2325.92194364 1646.34030506 2322.33936229 1646.33779392 C2318.44008641 1646.33615765 2314.54081592 1646.3403043 2310.64154178 1646.34370309 C2303.80916628 1646.34885317 2296.97679787 1646.35027497 2290.14442062 1646.34924698 C2279.98472615 1646.34772208 2269.82503952 1646.35188364 2259.66534657 1646.3571216 C2240.4672056 1646.36679299 2221.2690673 1646.36960573 2202.07092419 1646.37017866 C2187.2513769 1646.37063804 2172.43183066 1646.37269552 2157.61228371 1646.37587929 C2153.34805213 1646.37677681 2149.08382054 1646.37766662 2144.81958896 1646.37855417 C2143.22951554 1646.37888574 2143.22951554 1646.37888574 2141.60731942 1646.37922401 C2111.7921233 1646.38537786 2081.97692755 1646.38932459 2052.16173077 1646.38888073 C2051.03765199 1646.38886515 2049.9135732 1646.38884957 2048.75543143 1646.38883352 C2043.05796327 1646.38875041 2037.36049511 1646.38865137 2031.66302695 1646.38854881 C2030.53145865 1646.38852887 2029.39989036 1646.38850892 2028.23403211 1646.38848837 C2025.94572882 1646.38844794 2023.65742554 1646.38840614 2021.36912225 1646.38836298 C1985.74046219 1646.38774977 1950.11181164 1646.3952653 1914.4831543 1646.40893555 C1874.47014079 1646.42428164 1834.45713353 1646.43290273 1794.44411689 1646.43197232 C1790.18145708 1646.43189769 1785.91879727 1646.43184899 1781.65613747 1646.43181801 C1780.6065313 1646.43180635 1779.55692513 1646.4317947 1778.47551271 1646.43178269 C1761.55662027 1646.43175187 1744.63773607 1646.43814792 1727.71884608 1646.44675027 C1710.73192547 1646.45520895 1693.74501695 1646.4562307 1676.75809541 1646.44964095 C1666.65642065 1646.44593388 1656.55478253 1646.44781207 1646.45311162 1646.45758329 C1639.71483223 1646.46355266 1632.97657957 1646.46232201 1626.23830144 1646.45511279 C1622.39312248 1646.45120548 1618.54801478 1646.4505291 1614.70284065 1646.45857015 C1610.57017132 1646.46713724 1606.43767276 1646.46039868 1602.30500317 1646.45201397 C1601.09878131 1646.45698215 1599.89255946 1646.46195033 1598.64978543 1646.46706906 C1597.0056651 1646.45994284 1597.0056651 1646.45994284 1595.32833022 1646.45267266 C1594.3826056 1646.45276088 1593.43688099 1646.4528491 1592.46249805 1646.45294 C1589.81877941 1646.18810147 1588.19940751 1645.62662372 1585.96875 1644.203125 C1585.04321289 1642.36230469 1585.04321289 1642.36230469 1584.44140625 1640.125 C1584.20929443 1639.30104736 1583.97718262 1638.47709473 1583.73803711 1637.62817383 C1583.38817749 1636.30402466 1583.38817749 1636.30402466 1583.03125 1634.953125 C1582.51598722 1633.11765426 1581.99774403 1631.28301765 1581.4765625 1629.44921875 C1581.09612793 1628.09932861 1581.09612793 1628.09932861 1580.70800781 1626.72216797 C1579.74073925 1623.42617159 1578.60131461 1620.23628654 1577.40625 1617.015625 C1575.68202084 1612.30923849 1574.15749441 1607.58336603 1572.78125 1602.765625 C1570.40207333 1594.45670211 1567.75908143 1586.23618501 1565.09375 1578.015625 C1564.87492157 1577.34046844 1564.65609314 1576.66531189 1564.43063354 1575.96969604 C1563.55486471 1573.2681698 1562.6788677 1570.56671787 1561.80226135 1567.86546326 C1559.96237278 1562.19277133 1558.14719002 1556.51249205 1556.34375 1550.828125 C1555.7890764 1549.08202683 1555.23438888 1547.33593309 1554.6796875 1545.58984375 C1554.40350586 1544.72020996 1554.12732422 1543.85057617 1553.84277344 1542.95458984 C1549.73131811 1530.01154472 1545.61785726 1517.07278803 1541.28125 1504.203125 C1539.06868063 1497.62763969 1537.00250986 1491.03593361 1535.09521484 1484.36621094 C1532.48224389 1475.34717931 1529.52687657 1466.43257254 1526.62182617 1457.50439453 C1524.30222401 1450.36974044 1522.03264554 1443.22440806 1519.86547852 1436.04174805 C1518.9824606 1433.24652634 1518.00261639 1430.5082317 1516.96875 1427.765625 C1514.90541064 1422.2660945 1513.38798576 1416.65161826 1511.8984375 1410.9765625 C1511.28635162 1408.06779609 1511.28635162 1408.06779609 1508.96875 1407.203125 C1506.32736222 1407.79418584 1503.75872745 1408.46125189 1501.15625 1409.1953125 C1492.80996596 1411.47058546 1484.43529405 1413.59687857 1476.03125 1415.6484375 C1474.80897705 1415.94756042 1473.5867041 1416.24668335 1472.32739258 1416.55487061 C1468.54151047 1417.4806546 1464.75519296 1418.40463776 1460.96875 1419.328125 C1457.14356366 1420.26132146 1453.31851172 1421.1950502 1449.49389648 1422.13058472 C1447.13567224 1422.70742378 1444.77713235 1423.28297467 1442.41821289 1423.85696411 C1436.38590899 1425.33244187 1430.39122422 1426.88644265 1424.42285156 1428.60372925 C1421.17705339 1429.39649091 1417.97734523 1429.69906158 1414.6484375 1429.89453125 C1412.35162658 1430.1590328 1410.25788313 1430.57683216 1408.01342773 1431.10522461 C1402.56839965 1432.33105664 1397.08640541 1433.21332596 1391.57421875 1434.078125 C1389.9713073 1434.33311768 1389.9713073 1434.33311768 1388.33601379 1434.59326172 C1384.94316526 1435.1324806 1381.54973603 1435.66793426 1378.15625 1436.203125 C1374.77360791 1436.7391232 1371.391091 1437.27590386 1368.00862122 1437.81298828 C1365.91279177 1438.14550172 1363.81684267 1438.47726231 1361.7207489 1438.80810547 C1358.80283113 1439.26952294 1355.88572154 1439.73576609 1352.96875 1440.203125 C1351.86906891 1440.37682617 1350.76938782 1440.55052734 1349.63638306 1440.72949219 C1348.01293472 1440.99101074 1348.01293472 1440.99101074 1346.35668945 1441.2578125 C1345.37255569 1441.41491699 1344.38842194 1441.57202148 1343.37446594 1441.73388672 C1340.9683464 1442.09178124 1340.9683464 1442.09178124 1338.96875 1443.203125 C1336.23863415 1443.27346615 1333.52310718 1443.20021874 1330.79296875 1443.140625 C1328.04473842 1443.11379446 1328.04473842 1443.11379446 1325.71125793 1443.682724 C1322.54210617 1444.28408224 1319.48762374 1444.4522713 1316.2644043 1444.59204102 C1315.60972168 1444.62144775 1314.95503906 1444.65085449 1314.28051758 1444.68115234 C1312.11815559 1444.77713194 1309.95559891 1444.86731187 1307.79296875 1444.95703125 C1306.26576409 1445.02266732 1304.73856798 1445.08850251 1303.21138 1445.15452576 C1299.99950523 1445.29241939 1296.78752235 1445.4273485 1293.57543945 1445.56030273 C1290.32980679 1445.69488755 1287.08439126 1445.83348179 1283.83911133 1445.97631836 C1257.78751064 1447.12259195 1231.93743682 1447.55119512 1205.87011719 1446.40356445 C1202.65064876 1446.26264412 1199.4308665 1446.13188263 1196.2109375 1446.00195312 C1194.14580842 1445.91464986 1192.08070311 1445.82678193 1190.015625 1445.73828125 C1189.06161804 1445.69969498 1188.10761108 1445.6611087 1187.12469482 1445.62135315 C1186.24146545 1445.58138718 1185.35823608 1445.5414212 1184.44824219 1445.50024414 C1183.67679871 1445.46693497 1182.90535522 1445.43362579 1182.11053467 1445.39930725 C1179.97248264 1445.2034669 1178.04078226 1444.74997215 1175.96875 1444.203125 C1174.56916227 1444.13599849 1173.16663719 1444.11789564 1171.765625 1444.140625 C1170.95802734 1444.14916504 1170.15042969 1444.15770508 1169.31835938 1444.16650391 C1168.03155273 1444.18463135 1168.03155273 1444.18463135 1166.71875 1444.203125 C1153.0755797 1444.28969334 1139.49331275 1443.91231378 1126.14506531 1440.77441406 C1119.7009509 1439.26703428 1113.21656082 1438.25650562 1106.671875 1437.29296875 C1105.52007751 1437.12060196 1104.36828003 1436.94823517 1103.18157959 1436.77064514 C1099.5277432 1436.22430444 1095.87329168 1435.68222605 1092.21875 1435.140625 C1088.55003286 1434.594768 1084.88145604 1434.04799592 1081.21307373 1433.49989319 C1078.93729055 1433.16008296 1076.66129704 1432.82167766 1074.3850708 1432.48484802 C1073.35339783 1432.33121292 1072.32172485 1432.17757782 1071.25878906 1432.01928711 C1070.35549866 1431.88542099 1069.45220825 1431.75155487 1068.52154541 1431.6136322 C1065.98815144 1431.20624489 1063.48224942 1430.7180294 1060.96875 1430.203125 C1060.01846924 1430.03264648 1059.06818848 1429.86216797 1058.08911133 1429.68652344 C1045.42765738 1427.3285871 1033.07241626 1423.84511976 1020.65625 1420.453125 C1018.43957813 1419.85110205 1016.22278178 1419.24953724 1014.00585938 1418.6484375 C1009.57946298 1417.44762109 1005.153536 1416.24509954 1000.72802734 1415.04101562 C993.69095792 1413.12713653 986.65313707 1411.2161066 979.61328125 1409.3125 C977.97089729 1408.86635345 977.97089729 1408.86635345 976.29533386 1408.41119385 C975.2759523 1408.13595886 974.25657074 1407.86072388 973.20629883 1407.57714844 C972.31308426 1407.33526794 971.41986969 1407.09338745 970.49958801 1406.84417725 C968.0012773 1406.21136405 965.49999406 1405.68559857 962.96875 1405.203125 C959.88091095 1412.51524997 957.42570375 1419.91409535 955.15625 1427.515625 C952.35212825 1436.77674487 949.42353469 1445.98005654 946.33056641 1455.1484375 C944.8351314 1459.58750016 943.38283373 1464.0300196 942.03125 1468.515625 C939.83394366 1475.79241872 937.39154038 1482.98715613 934.96118164 1490.1887207 C933.26036187 1495.2476658 931.61501927 1500.31531977 930.0625 1505.421875 C927.46037693 1513.94992677 924.59413193 1522.38766313 921.75048828 1530.83740234 C919.03116656 1538.92483219 916.37155329 1547.01939095 913.88916016 1555.18359375 C912.43536056 1559.95298193 910.92054365 1564.7026667 909.40625 1569.453125 C909.11556641 1570.36835937 908.82488281 1571.28359375 908.52539062 1572.2265625 C906.34294581 1579.08148983 904.07853448 1585.90555808 901.78393555 1592.72363281 C894.46920874 1614.27816642 894.46920874 1614.27816642 887.87109375 1636.05859375 C886.98708212 1639.13924034 886.00420096 1642.17040418 884.96875 1645.203125 C875.05583985 1646.41921297 865.17692798 1646.34327443 855.20948792 1646.33010864 C853.30543661 1646.331262 851.40138552 1646.33285097 849.4973349 1646.33483589 C844.28518018 1646.33899938 839.07304385 1646.33695202 833.86088908 1646.33384967 C828.23245853 1646.33158376 822.60403112 1646.33508105 816.9756012 1646.33782959 C805.95937519 1646.34227289 794.943156 1646.34131738 783.92692972 1646.33841695 C774.97699633 1646.33615807 766.02706486 1646.3358525 757.07713127 1646.33694077 C755.80311038 1646.337094 754.52908949 1646.33724723 753.21646191 1646.33740511 C750.62836171 1646.33772483 748.04026151 1646.33804904 745.4521613 1646.3383777 C721.8856837 1646.34114683 698.31921067 1646.33827654 674.75273384 1646.3330351 C653.23497487 1646.32828575 631.71722181 1646.32871776 610.19946289 1646.33349609 C586.01727067 1646.33884818 561.83508265 1646.34095738 537.65288967 1646.33788383 C535.07647924 1646.33756528 532.5000688 1646.3372509 529.92365837 1646.33694077 C528.65597536 1646.33678649 527.38829235 1646.33663221 526.0821947 1646.33647326 C517.13665462 1646.3356088 508.19111662 1646.3370694 499.24557686 1646.33942032 C488.35371735 1646.34221984 477.46186505 1646.34147666 466.57000638 1646.33613957 C461.01007376 1646.33350521 455.45015318 1646.3324931 449.89022064 1646.33578873 C444.80609647 1646.33875686 439.72199557 1646.33715018 434.63787352 1646.33181117 C432.79359445 1646.33068926 430.94931344 1646.33127321 429.10503561 1646.33368696 C426.60806382 1646.33670564 424.11117285 1646.33363108 421.61420536 1646.32896614 C420.52768557 1646.33247789 420.52768557 1646.33247789 419.41921589 1646.33606058 C416.1243527 1646.32366656 413.11956057 1646.22182534 409.96875 1645.203125 C411.7102406 1638.80350101 413.91592824 1632.76485719 416.52661133 1626.67138672 C418.01386037 1623.09463711 419.40251056 1619.48886526 420.75390625 1615.859375 C421.01207123 1615.16842743 421.27023621 1614.47747986 421.53622437 1613.76559448 C424.70641181 1605.25787223 427.78825473 1596.71793065 430.86962891 1588.17773438 C433.77435429 1580.13162676 436.73813314 1572.12535923 439.96875 1564.203125 C444.58515488 1552.65790076 449.10731616 1541.13477859 452.91796875 1529.296875 C454.07497848 1525.89036309 455.45964782 1522.6698186 456.99536133 1519.42041016 C458.00242347 1517.12642011 458.80969447 1514.82666823 459.5859375 1512.4453125 C459.84745605 1511.64722168 460.10897461 1510.84913086 460.37841797 1510.02685547 C460.57322754 1509.42502441 460.76803711 1508.82319336 460.96875 1508.203125 C459.96199219 1508.97914062 458.95523437 1509.75515625 457.91796875 1510.5546875 C449.89504497 1516.72431203 441.83660706 1522.84637251 433.71875 1528.890625 C432.92170654 1529.4902002 432.12466309 1530.08977539 431.3034668 1530.70751953 C430.548479 1531.26681152 429.79349121 1531.82610352 429.015625 1532.40234375 C428.02320801 1533.14230591 428.02320801 1533.14230591 427.01074219 1533.8972168 C424.7507216 1535.34255995 422.48229764 1536.28034388 419.96875 1537.203125 C419.96875 1537.863125 419.96875 1538.523125 419.96875 1539.203125 C418.23046875 1540.4375 418.23046875 1540.4375 415.65625 1541.953125 C409.18749632 1545.94163115 403.1349053 1550.41965931 397.04760742 1554.96386719 C394.69402895 1556.71864406 392.33379193 1558.46383122 389.96875 1560.203125 C388.78696167 1561.07590088 388.78696167 1561.07590088 387.58129883 1561.96630859 C381.26778307 1566.51971948 374.67093617 1570.2211992 367.78125 1573.828125 C359.12692639 1578.41893131 350.53900531 1583.09599912 342.03125 1587.953125 C327.0031943 1596.48711589 312.34603028 1604.58031522 295.96875 1610.203125 C293.55103654 1611.05432422 291.13433262 1611.90839743 288.71875 1612.765625 C287.58050781 1613.16910156 286.44226563 1613.57257813 285.26953125 1613.98828125 C281.11457262 1615.51750271 277.04698018 1617.21858049 272.97265625 1618.94921875 C268.69437847 1620.73507982 264.36504198 1622.37782309 260.03125 1624.0234375 C257.44667223 1625.01902741 254.89675489 1626.06800836 252.34375 1627.140625 C233.69449653 1634.60032639 213.80643264 1639.39046257 194.40625 1644.453125 C190.86231847 1645.38449231 187.42901968 1646.33235097 184.03125 1647.703125 C171.97340191 1652.50860087 158.58777803 1654.29510315 145.84375 1656.390625 C144.28115227 1656.65241212 142.71865174 1656.91478008 141.15625 1657.17773438 C136.00437268 1658.04295895 130.85215511 1658.90606282 125.69189453 1659.7199707 C122.85129928 1660.16657292 122.85129928 1660.16657292 119.71875 1661.203125 C116.75564984 1661.99328504 114.35565056 1662.40181735 111.34375 1662.640625 C107.47245793 1662.96467934 103.91593252 1663.66787402 100.15625 1664.640625 C86.3823092 1667.95089213 71.91714246 1668.35165046 57.80859375 1668.86181641 C56.98488281 1668.8932373 56.16117188 1668.9246582 55.3125 1668.95703125 C54.23258789 1668.99292358 54.23258789 1668.99292358 53.13085938 1669.02954102 C50.93124256 1669.15717134 50.93124256 1669.15717134 48.67169476 1669.70603752 C45.90133697 1670.21552265 43.37436358 1670.32896668 40.55952454 1670.33010864 C38.95065369 1670.33433838 38.95065369 1670.33433838 37.3092804 1670.33865356 C36.14285507 1670.33662933 34.97642975 1670.3346051 33.7746582 1670.33251953 C32.53843719 1670.33427185 31.30221619 1670.33602417 30.02853394 1670.33782959 C26.64655061 1670.34147249 23.26462858 1670.34062479 19.88264871 1670.3374505 C16.34284143 1670.33491598 12.80303675 1670.33726733 9.26322937 1670.33883667 C3.3225355 1670.34065445 -2.61814592 1670.33826155 -8.55883789 1670.33349609 C-15.43159501 1670.32804671 -22.30432249 1670.3298226 -29.1770789 1670.3353225 C-35.07780165 1670.3398558 -40.97851546 1670.34050334 -46.87923938 1670.33788383 C-50.40374253 1670.33632322 -53.92823173 1670.33612155 -57.45273399 1670.33942032 C-61.37694839 1670.34283696 -65.30112937 1670.33810578 -69.2253418 1670.33251953 C-70.39783981 1670.33454376 -71.57033783 1670.33656799 -72.77836609 1670.33865356 C-73.84248718 1670.33583374 -74.90660828 1670.33301392 -76.00297546 1670.33010864 C-76.93117946 1670.32973162 -77.85938345 1670.32935459 -78.81571484 1670.32896614 C-81.03125 1670.203125 -81.03125 1670.203125 -83.03125 1669.203125 C-84.89458216 1669.03594319 -86.76327053 1668.9271556 -88.63232422 1668.84594727 C-89.80890594 1668.79241592 -90.98548767 1668.73888458 -92.19772339 1668.68373108 C-93.48083405 1668.62954514 -94.7639447 1668.57535919 -96.0859375 1668.51953125 C-97.42524665 1668.45903953 -98.7645307 1668.39798986 -100.10379028 1668.33641052 C-105.08013845 1668.10870486 -110.0568673 1667.88988084 -115.03369141 1667.67285156 C-157.94996673 1665.80023168 -157.94996673 1665.80023168 -170.03125 1663.203125 C-172.17130848 1662.96107171 -174.31149639 1662.76842707 -176.45703125 1662.58203125 C-179.03125 1662.203125 -179.03125 1662.203125 -182.72370911 1661.25476074 C-186.63334956 1660.26605675 -190.53384741 1659.58513072 -194.52612305 1658.99804688 C-195.22817368 1658.89367813 -195.9302243 1658.78930939 -196.65354919 1658.68177795 C-198.94948593 1658.34139107 -201.2462018 1658.00660989 -203.54296875 1657.671875 C-205.15954305 1657.43326147 -206.77606336 1657.19428193 -208.39253235 1656.95495605 C-212.63664705 1656.32753799 -216.88143825 1655.70482269 -221.12640381 1655.08319092 C-225.40952859 1654.45523862 -229.69206006 1653.82326925 -233.97460938 1653.19140625 C-238.80990251 1652.4780001 -243.64523183 1651.76487183 -248.48112488 1651.05554199 C-252.00745857 1650.53826556 -255.53320379 1650.01712483 -259.05868149 1649.49404907 C-261.02274436 1649.20437945 -262.98764574 1648.92041422 -264.95254517 1648.63647461 C-266.13714325 1648.46188721 -267.32174133 1648.2872998 -268.54223633 1648.10742188 C-270.10220085 1647.88064758 -270.10220085 1647.88064758 -271.69367981 1647.64929199 C-274.03125 1647.203125 -274.03125 1647.203125 -275.03125 1646.203125 C-276.91971407 1645.77350715 -278.81793325 1645.3867904 -280.71875 1645.015625 C-295.54001939 1641.91349885 -310.05458904 1637.51298832 -324.5715332 1633.23803711 C-335.38581285 1630.06982113 -346.2396155 1627.04389847 -357.09375 1624.015625 C-358.47957779 1623.62851349 -358.47957779 1623.62851349 -359.8934021 1623.23358154 C-362.5965898 1622.47880843 -365.30012778 1621.72531021 -368.00390625 1620.97265625 C-368.87017136 1620.73141022 -369.73643646 1620.49016418 -370.62895203 1620.24160767 C-375.17734708 1618.97950957 -379.73211307 1617.75019993 -384.30021667 1616.5615387 C-390.76599867 1614.87569617 -397.03211659 1612.93853973 -403.28125 1610.578125 C-404.18818604 1610.24184082 -405.09512207 1609.90555664 -406.02954102 1609.55908203 C-407.98766801 1608.83248041 -409.94475639 1608.1030746 -411.90087891 1607.37109375 C-415.2358532 1606.12678576 -418.57628486 1604.89804425 -421.91796875 1603.671875 C-432.46221831 1599.7971061 -442.98296263 1595.89817047 -453.38844299 1591.6630249 C-457.08289705 1590.18242681 -460.79331993 1588.75133647 -464.51928711 1587.35253906 C-465.5641939 1586.95974951 -465.5641939 1586.95974951 -466.63020992 1586.55902481 C-471.15480523 1584.87057948 -475.70342789 1583.2824275 -480.28344727 1581.74902344 C-507.50056798 1572.44674667 -532.85057138 1559.29780331 -558.42729819 1546.27268076 C-566.49397643 1542.16529749 -574.57404448 1538.08437828 -582.65515232 1534.00547409 C-583.25106188 1533.70467918 -583.84697144 1533.40388426 -584.46093887 1533.09397435 C-585.34683381 1532.64681038 -585.34683381 1532.64681038 -586.25062561 1532.19061279 C-590.84091767 1529.87357176 -595.42686804 1527.54826486 -600.00950623 1525.21612549 C-602.07915111 1524.16650188 -604.14881649 1523.1169187 -606.21850586 1522.06738281 C-607.62927399 1521.34600128 -607.62927399 1521.34600128 -609.06854248 1520.61004639 C-610.36401253 1519.95461853 -610.36401253 1519.95461853 -611.68565369 1519.28594971 C-612.432937 1518.90554157 -613.18022032 1518.52513344 -613.95014858 1518.13319778 C-615.96775778 1517.23150054 -617.87449798 1516.66460231 -620.03125 1516.203125 C-620.03125 1514.883125 -620.03125 1513.563125 -620.03125 1512.203125 C-619.37125 1512.203125 -618.71125 1512.203125 -618.03125 1512.203125 C-617.77601563 1511.36394531 -617.52078125 1510.52476563 -617.2578125 1509.66015625 C-615.92431064 1505.90171947 -614.23032771 1502.42571048 -612.40625 1498.890625 C-609.54636981 1493.27062788 -606.80121284 1487.61467832 -604.15625 1481.890625 C-600.94360342 1474.97596727 -597.46721942 1468.22934376 -593.88330078 1461.50073242 C-590.84105341 1455.77840998 -587.90937823 1450.00957809 -585.03125 1444.203125 C-581.80390124 1437.69743953 -578.49932603 1431.24229571 -575.09375 1424.828125 C-569.99417614 1415.21537798 -565.13204264 1405.48981985 -560.29345703 1395.74365234 C-558.15905904 1391.44760873 -556.01047715 1387.15867483 -553.86303711 1382.86914062 C-552.33239493 1379.81018071 -550.80652142 1376.74913297 -549.2890625 1373.68359375 C-546.30596621 1367.66508049 -543.28327511 1361.6702799 -540.17578125 1355.71484375 C-533.73953232 1343.37421165 -527.40356705 1330.99030603 -521.18359375 1318.5390625 C-520.72774714 1317.62660641 -520.72774714 1317.62660641 -520.2626915 1316.69571686 C-517.16945493 1310.50257218 -514.08074942 1304.30718516 -510.99804878 1298.10878944 C-500.38777656 1276.7790456 -500.38777656 1276.7790456 -495.14453125 1266.9375 C-490.80286674 1258.78392973 -486.67067492 1250.53055441 -482.5625 1242.2578125 C-482.23610346 1241.60109432 -481.90970692 1240.94437614 -481.57341957 1240.26775742 C-478.52683628 1234.13777482 -475.48391366 1228.00598953 -472.45019531 1221.86962891 C-470.77092251 1218.47356753 -469.0858936 1215.08041668 -467.39707947 1211.68909073 C-466.76012121 1210.40712957 -466.12538495 1209.12406184 -465.49293518 1207.83987045 C-464.61858802 1206.06486371 -463.73625614 1204.29379678 -462.85351562 1202.52294922 C-462.35517212 1201.51658417 -461.85682861 1200.51021912 -461.34338379 1199.47335815 C-460.03125 1197.203125 -460.03125 1197.203125 -458.03125 1196.203125 C-456.32641602 1196.91235352 -456.32641602 1196.91235352 -454.28515625 1198.08203125 C-453.5360498 1198.50556885 -452.78694336 1198.92910645 -452.01513672 1199.36547852 C-450.81655029 1200.05855103 -450.81655029 1200.05855103 -449.59375 1200.765625 C-447.94158176 1201.70343428 -446.28923876 1202.64093572 -444.63671875 1203.578125 C-443.43861572 1204.26261719 -443.43861572 1204.26261719 -442.21630859 1204.9609375 C-439.63125829 1206.43051693 -437.02371218 1207.85468061 -434.40625 1209.265625 C-415.21942155 1219.70420864 -415.21942155 1219.70420864 -409.03125 1223.765625 C-403.35052287 1227.4032836 -397.16337259 1230.20655845 -391.11621094 1233.17675781 C-387.95524356 1234.73281248 -384.80600483 1236.31203325 -381.65625 1237.890625 C-380.34642141 1238.54570739 -379.03652143 1239.20064704 -377.7265625 1239.85546875 C-369.46354167 1243.98697917 -361.20052083 1248.11848958 -352.9375 1252.25 C-351.9170459 1252.75917969 -350.8965918 1253.26835938 -349.84521484 1253.79296875 C-348.12852126 1254.65325177 -346.41455704 1255.51904581 -344.70556641 1256.39453125 C-340.67988173 1258.45118336 -336.67027702 1260.17395669 -332.40625 1261.703125 C-326.83653452 1263.73483205 -321.31372367 1265.8717986 -315.8125 1268.08203125 C-315.16721344 1268.34128387 -314.52192688 1268.6005365 -313.85708618 1268.86764526 C-310.60915152 1270.17429946 -307.36318943 1271.4857162 -304.11865234 1272.80078125 C-293.33176537 1277.15887267 -282.48523818 1281.34768511 -271.28125 1284.515625 C-266.27584403 1285.93676224 -261.30656176 1287.42506101 -256.36328125 1289.05078125 C-242.30538913 1293.62543177 -228.26290077 1297.04887276 -213.76782227 1299.85693359 C-212.38815257 1300.12451456 -211.00851322 1300.39225204 -209.62890625 1300.66015625 C-208.96227463 1300.78919342 -208.29564301 1300.91823059 -207.60881042 1301.05117798 C-203.81721684 1301.80023628 -200.1084229 1302.6869917 -196.39453125 1303.75390625 C-190.06794574 1305.55468131 -183.64672736 1306.5536268 -177.15625 1307.578125 C-174.47353411 1308.00519169 -171.79131542 1308.43527875 -169.109375 1308.8671875 C-168.0928334 1309.03021362 -168.0928334 1309.03021362 -167.05575562 1309.1965332 C-162.648425 1309.91261328 -158.26970052 1310.72599163 -153.890625 1311.6015625 C-135.80626399 1315.14766432 -118.27618386 1316.00754964 -99.89746094 1316.07714844 C-97.18839424 1316.16542063 -94.71742576 1316.34999291 -92.05322266 1316.70361328 C-85.04898 1317.53587423 -77.98783436 1317.34677926 -70.9453125 1317.3359375 C-69.39594508 1317.3366122 -67.84657776 1317.33758361 -66.29721069 1317.33883667 C-63.06808452 1317.34030319 -59.83898619 1317.33819114 -56.60986328 1317.33349609 C-52.47053147 1317.32777059 -48.3312641 1317.33110215 -44.19193459 1317.33706856 C-41.00067659 1317.34067801 -37.80943396 1317.3395343 -34.61817551 1317.33694077 C-33.0911394 1317.33627405 -31.56410189 1317.33709101 -30.03706741 1317.33942032 C-27.90960217 1317.34195626 -25.78224252 1317.33809424 -23.65478516 1317.33251953 C-22.44505035 1317.33172394 -21.23531555 1317.33092834 -19.98892212 1317.33010864 C-16.97276864 1317.33654442 -16.97276864 1317.33654442 -14.03125 1316.203125 C-11.64377668 1316.08574105 -9.25342267 1316.02430949 -6.86328125 1315.9921875 C-5.39647449 1315.96405244 -3.92967781 1315.93538783 -2.46289062 1315.90625 C-0.17522205 1315.86555019 2.11227194 1315.82864177 4.40014648 1315.80175781 C15.25079108 1315.66351786 25.36794426 1314.50272928 35.96875 1312.203125 C37.93211168 1311.81029727 39.8956359 1311.41828041 41.859375 1311.02734375 C57.47538442 1307.75924078 73.17339502 1304.12061394 87.796875 1297.59375 C90.31401308 1296.49017715 92.82480971 1295.47920331 95.390625 1294.5 C105.80620874 1290.45476519 114.34651977 1285.66248002 123.0625 1278.69580078 C125.11065472 1277.0920075 127.20208583 1275.56379062 129.3125 1274.04296875 C130.03735596 1273.51670898 130.76221191 1272.99044922 131.5090332 1272.44824219 C132.89949729 1271.43958262 134.29365147 1270.43598248 135.69213867 1269.43847656 C139.76527263 1266.43442983 142.30826663 1263.5850976 144.96875 1259.203125 C145.76410156 1258.16800781 146.55945313 1257.13289063 147.37890625 1256.06640625 C159.84190194 1239.64410668 167.72311141 1219.77317736 169.69873047 1199.2668457 C169.9968514 1196.98835 170.50049245 1194.81442185 171.04296875 1192.58203125 C172.95153686 1184.37138716 171.33904915 1175.82909401 169.47265625 1167.7109375 C168.96875 1165.203125 168.96875 1165.203125 168.74609375 1162.4453125 C167.88342446 1153.33260878 163.64964322 1147.32852733 158.30908203 1140.18432617 C156.96875 1138.203125 156.96875 1138.203125 155.14477539 1134.84155273 C152.02296219 1129.32339823 147.37265478 1125.12527416 142.9074707 1120.69580078 C141.29030637 1119.08713379 139.69267724 1117.4607138 138.09570312 1115.83203125 C132.51698185 1110.21555021 127.16717436 1105.64199659 119.96875 1102.203125 C118.08099101 1101.03601436 116.20370105 1099.8515599 114.34375 1098.640625 C110.89893369 1096.40097716 107.40833275 1094.2988454 103.83712769 1092.26698303 C102.1251202 1091.29216251 100.41755334 1090.3095539 98.71044922 1089.32617188 C79.187863 1078.10133238 60.06577828 1067.78119836 38.43017578 1061.26660156 C31.36253842 1059.09516495 24.35766809 1056.7285977 17.34375 1054.390625 C16.57792603 1054.13647827 15.81210205 1053.88233154 15.02307129 1053.6204834 C2.97113934 1049.61924453 -8.98222538 1045.39440509 -20.87548828 1040.9440918 C-37.35120881 1034.78732528 -54.10498203 1029.71717275 -70.95556641 1024.70898438 C-73.7943764 1023.86425368 -76.63163036 1023.01445026 -79.46875 1022.1640625 C-80.3261377 1021.9108725 -81.18352539 1021.6576825 -82.06689453 1021.39682007 C-86.89288678 1019.94711891 -91.41937901 1018.22806038 -96.03125 1016.203125 C-97.85128103 1015.58352299 -99.6821879 1014.9947773 -101.5234375 1014.44140625 C-102.54526123 1014.13138672 -103.56708496 1013.82136719 -104.61987305 1013.50195312 C-105.70437744 1013.17646484 -106.78888184 1012.85097656 -107.90625 1012.515625 C-110.24381194 1011.80444409 -112.58104361 1011.09217686 -114.91796875 1010.37890625 C-116.10310059 1010.01748535 -117.28823242 1009.65606445 -118.50927734 1009.28369141 C-160.8720475 996.28649047 -160.8720475 996.28649047 -178.9609375 988.453125 C-182.87242391 986.86066234 -186.84869242 985.50694508 -190.84375 984.140625 C-212.54270643 976.67996175 -233.84779765 968.00356861 -255.03125 959.203125 C-256.25070312 958.70039062 -257.47015625 958.19765625 -258.7265625 957.6796875 C-262.85474424 955.97254468 -266.96251465 954.23711032 -271.0390625 952.41015625 C-274.73676561 950.76065879 -278.45704394 949.17407423 -282.19140625 947.609375 C-301.76656973 939.38647228 -320.71004237 930.18624792 -339.45263672 920.20043945 C-343.68848883 917.94572975 -347.94170659 915.73312704 -352.22709656 913.57371521 C-354.76345217 912.29524337 -357.29553408 911.00840238 -359.82778931 909.72183228 C-361.64118116 908.80484945 -363.46048781 907.89959194 -365.2800293 906.99487305 C-374.03279924 902.54032205 -381.95746711 897.29163354 -389.97610474 891.63674927 C-393.38676994 889.25754402 -396.85271025 886.9630433 -400.3203125 884.66796875 C-401.00706558 884.21212906 -401.69381866 883.75628937 -402.40138245 883.28663635 C-405.18439813 881.43973948 -407.96894751 879.59517533 -410.75488281 877.75268555 C-426.52883644 867.31447194 -441.72610251 856.40957961 -456.34375 844.390625 C-458.71543678 842.46018227 -461.11011703 840.57085615 -463.53125 838.703125 C-468.78520508 834.64155689 -473.9183055 830.44033461 -479.03125 826.203125 C-479.83731689 825.53676025 -479.83731689 825.53676025 -480.65966797 824.85693359 C-489.43242155 817.588372 -497.55119948 810.12942239 -504.984375 801.46875 C-507.56771855 798.60932394 -510.29040511 795.91067345 -513.03125 793.203125 C-516.96059291 789.31673565 -520.77847125 785.40163404 -524.3449707 781.17333984 C-525.40935531 779.92973426 -526.49200725 778.70132864 -527.59912109 777.49560547 C-532.67428386 771.93479563 -536.7455939 765.87874217 -540.84375 759.578125 C-545.29655195 752.80615536 -549.75237226 746.06254399 -554.53125 739.515625 C-564.6592485 725.49224246 -572.58074628 710.33266227 -580.1796875 694.83984375 C-581.4606424 692.27163417 -582.82833201 689.77362421 -584.2578125 687.28515625 C-590.07278572 677.04885082 -593.41685538 666.97035023 -596.37695312 655.60400391 C-597.28656705 652.26626387 -598.39293671 649.03287232 -599.53125 645.765625 C-601.64840326 639.5511978 -603.47687953 633.28280613 -605.21875 626.953125 C-605.46882812 626.05408447 -605.71890625 625.15504395 -605.9765625 624.22875977 C-608.30399095 615.64164959 -609.77406254 607.00343721 -611.03125 598.203125 C-611.18142578 597.6054834 -611.33160156 597.0078418 -611.48632812 596.39208984 C-612.16859478 593.65140756 -612.67484376 590.89463209 -613.1875 588.1171875 C-613.40535156 586.93898438 -613.62320313 585.76078125 -613.84765625 584.546875 C-614.18603516 582.70609375 -614.18603516 582.70609375 -614.53125 580.828125 C-614.75683594 579.60867188 -614.98242188 578.38921875 -615.21484375 577.1328125 C-616.43650279 570.51127591 -616.43650279 570.51127591 -617.03125 567.203125 C-617.2180835 566.17993164 -617.40491699 565.15673828 -617.59741211 564.10253906 C-617.98716053 561.4977826 -618.14690805 559.08919963 -618.12890625 556.4609375 C-618.12568359 555.62304688 -618.12246094 554.78515625 -618.11914062 553.921875 C-618.11076172 553.0659375 -618.10238281 552.21 -618.09375 551.328125 C-618.08923828 550.44898438 -618.08472656 549.56984375 -618.08007812 548.6640625 C-618.06837337 546.51038697 -618.05044069 544.35674683 -618.03125 542.203125 C-618.69125 542.203125 -619.35125 542.203125 -620.03125 542.203125 C-620.03125 520.753125 -620.03125 499.303125 -620.03125 477.203125 C-619.37125 477.203125 -618.71125 477.203125 -618.03125 477.203125 C-618.05445313 476.59210938 -618.07765625 475.98109375 -618.1015625 475.3515625 C-618.24496732 468.07888953 -617.75151554 460.94328663 -617.09375 453.703125 C-617.00689941 452.73552246 -616.92004883 451.76791992 -616.83056641 450.77099609 C-616.45464418 446.80539877 -616.00539586 443.06565774 -615.03125 439.203125 C-614.85568329 436.80928686 -614.71349176 434.41290401 -614.59375 432.015625 C-614.19140828 425.07627599 -613.08262048 418.77049679 -611.12255859 412.11987305 C-609.92220627 407.91648449 -608.9413293 403.67193765 -607.97265625 399.41015625 C-607.78283676 398.58287521 -607.59301727 397.75559418 -607.39744568 396.90324402 C-606.79445164 394.27443757 -606.19389214 391.64508387 -605.59375 389.015625 C-604.25023877 383.1366033 -602.90183339 377.258809 -601.53643799 371.38482666 C-601.07990254 369.41323555 -600.63104446 367.43987054 -600.18310547 365.46630859 C-599.9357666 364.4139502 -599.68842773 363.3615918 -599.43359375 362.27734375 C-599.23113037 361.40037842 -599.02866699 360.52341309 -598.82006836 359.61987305 C-597.91587549 356.84964551 -596.54551272 354.68816036 -595.03125 352.203125 C-594.22584343 350.24557007 -593.46407975 348.26969602 -592.73828125 346.28125 C-590.01310486 339.03992149 -586.91245816 331.99756329 -583.71875 324.953125 C-583.13605013 323.66390768 -582.55336805 322.37468233 -581.97070312 321.08544922 C-580.8327308 318.57032661 -579.69168801 316.05662829 -578.54833984 313.54394531 C-577.31017279 310.81734763 -576.08373829 308.08610243 -574.86328125 305.3515625 C-569.37465868 293.20503323 -562.68860958 281.73806813 -556.03125 270.203125 C-554.87845586 268.19427365 -553.72758789 266.18434284 -552.578125 264.17358398 C-551.62920841 262.51509806 -550.67601415 260.85906189 -549.72265625 259.203125 C-548.09494319 256.31609584 -546.56208013 253.39231885 -545.03125 250.453125 C-540.38754466 241.90420115 -533.84101487 234.93029349 -527.328125 227.77734375 C-521.7137131 221.48500116 -516.41458328 214.91927719 -511.515625 208.0546875 C-510.03125 206.203125 -510.03125 206.203125 -507.59765625 203.78125 C-505.23193765 201.40472903 -503.2525302 198.9873651 -501.21875 196.328125 C-497.14305312 191.28821124 -492.69424215 186.82340691 -487.96875 182.390625 C-487.30834717 181.76881348 -486.64794434 181.14700195 -485.9675293 180.50634766 C-482.14206009 176.96938752 -478.1919486 173.79037367 -473.9934082 170.71069336 C-470.67351931 168.1599513 -467.68063154 165.27989671 -464.65625 162.390625 C-463.33901964 161.14923222 -462.02131122 159.9083465 -460.703125 158.66796875 C-460.07212891 158.07226074 -459.44113281 157.47655273 -458.79101562 156.86279297 C-448.45693927 147.11653172 -437.74593805 138.32566016 -425.64453125 130.84765625 C-423.04312665 129.21059894 -420.53688053 127.48271456 -418.03125 125.703125 C-414.72316536 123.35531822 -411.3710705 121.12611254 -407.93359375 118.97265625 C-404.04055665 116.508651 -400.20631539 113.98182043 -396.41015625 111.37109375 C-384.76047693 103.37678076 -373.15685447 96.37087559 -360.38867188 90.33886719 C-356.5279831 88.47889161 -352.75147857 86.46570468 -348.96875 84.453125 C-347.39847965 83.62622203 -345.82816566 82.79940194 -344.2578125 81.97265625 C-341.48410461 80.50812554 -338.7167067 79.0334674 -335.95605469 77.54443359 C-320.33368328 69.11859721 -304.80823112 61.99548363 -288.03125 56.203125 C-285.34161456 55.25068983 -282.65543635 54.28887043 -279.96875 53.328125 C-278.46634766 52.80605469 -278.46634766 52.80605469 -276.93359375 52.2734375 C-274.88165899 51.51673478 -272.85532545 50.68883859 -270.8515625 49.8125 C-265.99393859 47.70072102 -260.97708118 46.04251529 -255.96875 44.328125 C-249.70548307 42.1776324 -243.46899447 40.00122206 -237.28125 37.640625 C-228.20200998 34.35830171 -218.77462055 32.20462887 -209.421875 29.8515625 C-204.79265885 28.67686309 -200.21509231 27.4020777 -195.64941406 26.00244141 C-190.21121444 24.34217792 -184.74429948 22.77923255 -179.28125 21.203125 C-178.10820312 20.86023438 -176.93515625 20.51734375 -175.7265625 20.1640625 C-160.23691022 15.70440437 -145.07342582 13.33043024 -129.09375 11.578125 C-126.19249114 11.25342753 -123.29145913 10.92677227 -120.39048767 10.59951782 C-118.60096047 10.39834025 -116.81122698 10.19898596 -115.02125549 10.00180054 C-108.86794634 9.31983528 -102.74867884 8.48265414 -96.6328125 7.51953125 C-72.59432473 3.82899528 -48.48009818 2.81774903 -24.20727539 1.90014648 C-23.21438004 1.86099121 -22.22148468 1.82183594 -21.19850159 1.78149414 C-19.30562125 1.70703473 -17.41258139 1.63650461 -15.51939392 1.5703125 C-10.01460611 1.35042551 -5.60706365 0.03017874 0 0 Z M2358.96875 369.203125 C2358.96875 507.143125 2358.96875 645.083125 2358.96875 787.203125 C2441.93696329 789.49563302 2441.93696329 789.49563302 2532.96875 783.203125 C2534.4365155 782.9917452 2535.9052478 782.78693632 2537.375 782.58984375 C2585.43021199 776.20471256 2585.43021199 776.20471256 2630.84472656 760.18603516 C2633.12094536 759.13269528 2635.42281736 758.24523353 2637.7734375 757.37109375 C2672.42231659 744.25385121 2708.16763132 715.27944607 2723.734375 681.2734375 C2724.11916016 680.38946289 2724.50394531 679.50548828 2724.90039062 678.59472656 C2725.82429309 676.52650249 2726.81947568 674.59082954 2727.953125 672.6328125 C2734.80741727 660.53165048 2738.0994327 646.48754711 2741.96875 633.203125 C2742.32541748 631.99197021 2742.68208496 630.78081543 2743.04956055 629.53295898 C2744.8316227 623.07730277 2745.07092017 616.95324564 2744.90625 610.3046875 C2744.96875 608.203125 2744.96875 608.203125 2745.96875 606.203125 C2746.46965278 602.4272153 2746.72364881 598.62415159 2747.03125 594.828125 C2747.16756836 593.27544922 2747.16756836 593.27544922 2747.30664062 591.69140625 C2748.44494189 577.94620449 2747.6691062 564.64317363 2746.42456055 550.93847656 C2746.15568933 547.94688675 2745.90470805 544.95412205 2745.65429688 541.9609375 C2745.48286069 540.03636094 2745.31037117 538.11187786 2745.13671875 536.1875 C2745.06470749 535.30398865 2744.99269623 534.42047729 2744.91850281 533.51019287 C2744.46084404 528.68710026 2743.57808204 524.57341887 2741.73643494 520.09152222 C2740.50596578 517.06474075 2739.62911104 513.93854019 2738.69921875 510.80859375 C2738.28117747 509.42625721 2737.86253866 508.04410125 2737.44335938 506.66210938 C2736.79941951 504.53151577 2736.15905789 502.40013948 2735.52905273 500.26538086 C2732.88013901 491.31455751 2729.74941722 483.26959939 2724.96875 475.203125 C2723.93705295 473.30394282 2722.91372537 471.4001923 2721.8984375 469.4921875 C2721.14240234 468.09033203 2721.14240234 468.09033203 2720.37109375 466.66015625 C2719.34131027 464.75071119 2718.31534785 462.83920108 2717.29296875 460.92578125 C2713.9939625 454.82813217 2710.76770845 449.52017648 2705.40625 445.015625 C2702.12142506 442.21564507 2698.94189685 439.33011872 2695.78125 436.390625 C2686.69222514 428.13809006 2677.16744504 421.12479539 2666.69824219 414.74658203 C2663.01125805 412.49974278 2659.48912537 410.17153152 2656.03125 407.578125 C2651.22332973 404.13700481 2646.07279104 401.76244182 2640.70825195 399.33251953 C2634.73911436 396.62040507 2628.97999605 393.61099033 2623.29272461 390.34814453 C2617.15877578 386.96320245 2610.6868226 385.10609024 2603.96875 383.203125 C2602.86934082 382.88408203 2601.76993164 382.56503906 2600.63720703 382.23632812 C2521.80345496 359.85185597 2440.34448595 369.203125 2358.96875 369.203125 Z M1239.96875 536.203125 C1237.19728923 538.57713762 1236.2925713 540.61607602 1235.27734375 544.09375 C1234.97739502 545.09817139 1234.67744629 546.10259277 1234.3684082 547.13745117 C1233.89213989 548.77870972 1233.89213989 548.77870972 1233.40625 550.453125 C1232.70257574 552.80920845 1231.99675101 555.16465043 1231.2890625 557.51953125 C1230.72880371 559.38955811 1230.72880371 559.38955811 1230.15722656 561.29736328 C1228.12368032 568.02408339 1225.94686744 574.70554295 1223.78125 581.390625 C1223.37769287 582.64069336 1222.97413574 583.89076172 1222.55834961 585.17871094 C1220.72409028 590.84599145 1218.87168784 596.50627168 1216.97662354 602.1534729 C1215.04360754 607.91414099 1213.18842062 613.67000116 1211.53125 619.515625 C1209.63883542 626.08697044 1207.54072421 632.56664963 1205.34228516 639.04125977 C1203.23079143 645.30661066 1201.3057806 651.62067035 1199.40625 657.953125 C1197.18567341 665.34940893 1194.79996063 672.61478151 1192.13671875 679.86328125 C1190.60918162 684.2313222 1189.33219369 688.6601387 1188.05639648 693.10595703 C1185.81033338 700.87514028 1183.32048721 708.56364372 1180.84057617 716.26074219 C1179.17933719 721.41856105 1177.53161111 726.57692612 1175.96875 731.765625 C1174.17046333 737.68104167 1172.190057 743.5312682 1170.21875 749.390625 C1167.06433796 758.78587495 1164.07595095 768.220859 1161.18505859 777.70019531 C1158.28749071 787.19614347 1155.32457605 796.67056477 1152.34375 806.140625 C1152.11972504 806.85272125 1151.89570007 807.5648175 1151.66488647 808.29849243 C1150.55731265 811.81877866 1149.44859072 815.33869912 1148.33837891 818.8581543 C1147.40583497 821.81455885 1146.47621478 824.77186325 1145.54833984 827.72973633 C1142.90021907 836.15989779 1140.20898895 844.57450377 1137.4609375 852.97265625 C1137.01619583 854.3319651 1137.01619583 854.3319651 1136.56246948 855.71873474 C1135.35081243 859.4194174 1134.13818032 863.11977355 1132.92236328 866.8190918 C1129.71494803 876.58371883 1126.54166432 886.33263965 1123.81567383 896.24462891 C1122.8970418 899.45361794 1121.85610707 902.60580124 1120.78125 905.765625 C1118.20428802 913.36885958 1115.83453775 921.03195191 1113.46875 928.703125 C1110.41988645 938.5799396 1107.30403018 948.41889777 1103.96875 958.203125 C1101.02293558 966.86932368 1098.11609431 975.52794596 1095.59375 984.328125 C1093.59715087 991.29111008 1091.34761949 998.15283074 1089.03125 1005.015625 C1085.95258191 1014.14288568 1083.07448992 1023.30672373 1080.35546875 1032.546875 C1079.43642772 1035.66367941 1078.48104155 1038.76526115 1077.48828125 1041.859375 C1077.13576294 1042.96055664 1077.13576294 1042.96055664 1076.77612305 1044.08398438 C1076.33579833 1045.45143288 1075.89097311 1046.81744422 1075.44067383 1048.18164062 C1074.4015283 1051.4166432 1073.96875 1053.74764141 1073.96875 1057.203125 C1088.89137812 1061.83827771 1103.85577325 1066.22991278 1118.96875 1070.203125 C1119.73896484 1070.40566895 1120.50917969 1070.60821289 1121.30273438 1070.81689453 C1129.48040522 1072.95153368 1137.64670628 1074.73287857 1145.96875 1076.203125 C1150.89064819 1077.0867703 1155.81189732 1077.97398739 1160.73291016 1078.86254883 C1162.23765492 1079.13382352 1163.74254069 1079.40431707 1165.24755859 1079.67407227 C1167.4466664 1080.06841303 1169.64524999 1080.4655678 1171.84375 1080.86328125 C1173.14054687 1081.09668213 1174.43734375 1081.33008301 1175.7734375 1081.57055664 C1178.96875 1082.203125 1178.96875 1082.203125 1181.96875 1083.203125 C1184.05774962 1083.2636627 1186.14860176 1083.26698441 1188.23828125 1083.23828125 C1195.72154103 1083.18538583 1203.17825573 1083.37511063 1210.65625 1083.640625 C1212.49799805 1083.69959961 1212.49799805 1083.69959961 1214.37695312 1083.75976562 C1220.81109258 1083.98257813 1227.18775866 1084.36214444 1233.59448242 1084.99145508 C1236.66152637 1085.26488717 1239.70283098 1085.33586945 1242.78125 1085.328125 C1244.33779297 1085.33199219 1244.33779297 1085.33199219 1245.92578125 1085.3359375 C1248.93186984 1085.27297426 1248.93186984 1085.27297426 1251.70361328 1084.71020508 C1255.25397105 1084.15882979 1258.6618636 1084.02528259 1262.25390625 1083.95703125 C1263.6739992 1083.92591423 1265.09408359 1083.89440489 1266.51416016 1083.86254883 C1267.61911835 1083.83954208 1267.61911835 1083.83954208 1268.74639893 1083.81607056 C1289.53275483 1083.3571438 1309.71214915 1081.33197154 1330.28125 1078.328125 C1331.13551575 1078.20515045 1331.98978149 1078.0821759 1332.86993408 1077.95547485 C1346.91309536 1075.91812765 1360.74060335 1073.50591146 1373.96875 1068.203125 C1377.07927098 1067.15669698 1380.21058905 1066.17937461 1383.34375 1065.203125 C1384.17430908 1064.94257324 1385.00486816 1064.68202148 1385.8605957 1064.41357422 C1391.55048067 1062.63294479 1397.25044373 1060.89049406 1402.96875 1059.203125 C1401.51542064 1050.16459215 1398.69642904 1041.58038846 1395.90625 1032.890625 C1395.40969568 1031.33011357 1394.91377397 1029.76940072 1394.41845703 1028.20849609 C1393.66381001 1025.83058719 1392.90880845 1023.45279853 1392.15185547 1021.07562256 C1389.84718636 1013.83728639 1387.58848681 1006.58528841 1385.34375 999.328125 C1384.61727217 996.98044255 1383.89070988 994.63278623 1383.1640625 992.28515625 C1382.80602539 991.12838379 1382.44798828 989.97161133 1382.07910156 988.77978516 C1380.92057935 985.04795788 1379.75410429 981.31865893 1378.5859375 977.58984375 C1375.10790559 966.46968807 1371.66355614 955.36356084 1368.63964844 944.1105957 C1367.12784032 938.56488914 1365.21322791 933.21554186 1363.21875 927.82421875 C1361.52646095 922.92186892 1360.19189892 917.9459769 1358.84155273 912.94091797 C1357.20913176 906.93905231 1355.29571922 901.06641419 1353.28515625 895.1796875 C1351.72863222 890.55613847 1350.35267845 885.88065345 1348.96875 881.203125 C1347.2367705 875.35089213 1345.44237034 869.54099477 1343.46875 863.765625 C1341.20830834 857.09948175 1339.27882746 850.36542891 1337.37802124 843.58905029 C1335.63037912 837.40630583 1333.75452722 831.27810076 1331.78125 825.1640625 C1328.06247547 813.55544538 1324.4595421 801.91251315 1320.87939453 790.26049805 C1319.83914786 786.87565014 1318.7966274 783.49150822 1317.75390625 780.10742188 C1314.62709965 769.94682909 1311.52874574 759.78109201 1308.55664062 749.57411194 C1307.38118899 745.55318199 1306.12107598 741.57700476 1304.76464844 737.61425781 C1303.67225083 734.30489623 1302.66858749 730.96961935 1301.6640625 727.6328125 C1301.4562616 726.94278137 1301.24846069 726.25275024 1301.03436279 725.54180908 C1300.17226192 722.67491042 1299.31204842 719.80745154 1298.45361328 716.93945312 C1296.1726208 709.32565752 1293.84735501 701.73804397 1291.3046875 694.20703125 C1289.52549161 688.92728663 1287.89190955 683.65085037 1286.46875 678.265625 C1283.69842191 668.07024393 1280.79095612 657.89650555 1277.03125 648.015625 C1274.89045703 642.2532534 1273.26774872 636.37132761 1271.60839844 630.45727539 C1269.10793706 621.58927041 1266.45460967 612.77016691 1263.78125 603.953125 C1263.56515076 603.23848083 1263.34905151 602.52383667 1263.12640381 601.78753662 C1261.034583 594.87262523 1258.93490933 587.96522981 1256.61499023 581.12255859 C1255.55615748 577.9776613 1254.57845733 574.80953216 1253.59375 571.640625 C1253.1615044 570.25128775 1252.7292113 568.86196528 1252.296875 567.47265625 C1252.07837891 566.76963379 1251.85988281 566.06661133 1251.63476562 565.34228516 C1250.97264934 563.21564921 1250.30724734 561.09007117 1249.640625 558.96484375 C1249.4250293 558.27664551 1249.20943359 557.58844727 1248.98730469 556.87939453 C1248.5622204 555.52447869 1248.13581298 554.16997717 1247.70800781 552.81591797 C1246.2613244 548.2171207 1244.94256086 543.59476592 1243.7421875 538.92578125 C1243.48695313 538.35730469 1243.23171875 537.78882813 1242.96875 537.203125 C1241.97875 536.873125 1240.98875 536.543125 1239.96875 536.203125 Z " fill="#00875F" fill-opacity="0.05" transform="translate(642.03125,244.796875)"/>
</svg>
