<svg width="853" height="806" viewBox="0 0 853 806" fill="none" xmlns="http://www.w3.org/2000/svg">
<path d="M426.309 805.98C413.518 805.98 400.536 803.101 389.272 797.663L271.479 739.288C253.915 730.971 262.506 728.093 268.233 726.493C291.715 719.616 296.488 718.177 321.498 706.182C324.171 704.902 327.607 705.382 330.28 706.822L420.773 751.763C424.018 753.362 428.6 753.362 431.655 751.763L784.271 581.275C787.517 579.675 789.617 576.477 789.617 573.278V232.302C789.617 228.943 787.517 225.905 784.08 224.145L431.655 53.8173C428.409 52.2179 424.018 52.2179 420.773 53.8173L68.5378 224.305C65.1014 225.905 63.0013 229.103 63.0013 232.462V573.278C63.0013 576.477 65.1014 579.675 68.5378 581.115L165.14 627.815C217.641 649.726 249.714 623.977 249.714 597.908V261.41C249.714 256.612 254.296 252.933 260.024 252.933H304.697C310.234 252.933 315.007 256.612 315.007 261.41V598.067C315.007 656.603 276.824 690.189 210.577 690.189C190.15 690.189 174.113 690.189 129.439 671.636L37.0372 627.015C14.1276 615.98 0 595.349 0 573.118V232.302C0 210.231 14.1276 189.44 37.0372 178.405L389.272 7.91666C411.609 -2.63889 441.2 -2.63889 463.346 7.91666L815.963 178.565C838.872 189.6 853 210.231 853 232.462V573.278C853 595.349 838.872 615.98 815.963 627.175L463.346 797.663C452.082 803.101 439.291 805.98 426.309 805.98ZM710.961 469.962C710.961 406.148 659.414 389.196 551.166 377.201C441.582 365.046 430.509 358.808 430.509 337.378C430.509 319.625 439.864 295.955 521.002 295.955C593.358 295.955 620.086 309.069 631.159 350.012C632.113 353.851 636.314 356.729 641.086 356.729H686.906C689.769 356.729 692.442 355.77 694.351 354.01C696.26 352.251 697.215 349.852 697.024 347.453C689.96 276.923 634.023 244.137 521.002 244.137C420.391 244.137 360.444 279.642 360.444 339.297C360.444 403.909 420.2 421.822 516.611 429.818C632.113 439.254 641.086 453.488 641.086 472.52C641.086 505.467 609.395 519.541 535.13 519.541C441.773 519.541 421.345 499.869 414.473 461.005C413.709 456.847 409.509 453.808 404.354 453.808H358.726C352.998 453.808 348.607 457.647 348.607 462.285C348.607 512.024 380.872 571.359 535.32 571.359C646.814 571.199 710.961 534.254 710.961 469.962Z" fill="#00875F" fill-opacity="0.05"/>
</svg>
